<?xml version="1.0" standalone="no"?>
<!DOCTYPE svg PUBLIC "-//W3C//DTD SVG 1.1//EN" "http://www.w3.org/Graphics/SVG/1.1/DTD/svg11.dtd" >
<svg>
<metadata>
Created by FontForge 20120731 at Fri Nov  8 21:04:23 2013
 By World Wide Web Server
Copyright (c) 2013 by DPWEB.ir , All Rights Reserved.
Copyright (c) 1999 by (URW)++ Design &#38; Development
</metadata>
<defs>
<font id="Dehnavi92" horiz-adv-x="500" >
  <font-face 
    font-family="Dehnavi 92"
    font-weight="700"
    font-stretch="normal"
    units-per-em="2048"
    panose-1="2 0 7 0 0 0 0 0 0 0"
    ascent="1638"
    descent="-410"
    x-height="1118"
    cap-height="1462"
    bbox="-258 -1188 2422 2126"
    underline-thickness="100"
    underline-position="-670"
    unicode-range="U+0020-FEFC"
  />
<missing-glyph horiz-adv-x="1024" 
d="M128 0v1621h768v-1621h-768zM256 128h512v1365h-512v-1365z" />
    <glyph glyph-name="afii57457_afii57451" unicode="&#x651;&#x64b;" 
d="M484 1557q0 -60 -25 -103q-30 -53 -85 -53q-59 0 -92 29q-58 -82 -118 -82q-94 0 -94 123q0 39 11 76q16 52 46 52q11 0 14 -65q2 -59 49 -59q42 0 53 78t28 78q21 0 37 -58.5t59 -58.5q46 0 46 51q0 20 -11 78l62 39q20 -41 20 -125zM476 1784l-391 -139v106l391 138
v-105zM476 1995l-391 -138v106l391 137v-105z" />
    <glyph glyph-name="afii57457_afii57452" unicode="&#x651;&#x64c;" arabic-form="isolated" 
d="M502 1956q0 -88 -66 -129q17 -22 44 -29l-59 -87q-42 7 -88 42q-130 -65 -190 -65q-17 0 -69 49q-11 10 -11 15q10 3 63 16q16 4 23 27q4 12 4 21q0 28 -32 28q-29 0 -49 -21l-35 34q41 46 83 46q66 0 83 -44q5 -12 5 -25q0 -25 -20 -51q52 11 87 30q-23 35 -23 70
q0 65 73 123q61 48 95 48q33 0 59 -33q23 -31 23 -65zM419 1924q0 47 -35 47q-16 0 -31 -18t-15 -34q0 -39 37 -60q44 28 44 65zM484 1557q0 -60 -25 -103q-30 -53 -85 -53q-59 0 -92 29q-58 -82 -118 -82q-94 0 -94 123q0 39 11 76q16 52 46 52q11 0 14 -65q2 -59 49 -59
q42 0 53 78t28 78q21 0 37 -58.5t59 -58.5q46 0 46 51q0 20 -11 78l62 39q20 -41 20 -125z" />
    <glyph glyph-name="afii57457_afii57453" unicode="&#x651;&#x64d;" arabic-form="isolated" 
d="M484 2001q0 -60 -25 -103q-30 -53 -85 -53q-59 0 -92 29q-58 -82 -118 -82q-94 0 -94 123q0 39 11 76q16 52 46 52q11 0 14 -65q2 -59 49 -59q42 0 53 78t28 78q21 0 37 -58.5t59 -58.5q46 0 46 51q0 20 -11 78l62 39q20 -41 20 -125zM476 1484l-391 -138v106l391 137
v-105zM476 1696l-391 -139v106l391 137v-104z" />
    <glyph glyph-name="afii57457_afii57454" unicode="&#x651;&#x64e;" arabic-form="isolated" 
d="M476 1793l-391 -139v106l391 137v-104zM484 1557q0 -60 -25 -103q-30 -53 -85 -53q-59 0 -92 29q-58 -82 -118 -82q-94 0 -94 123q0 39 11 76q16 52 46 52q11 0 14 -65q2 -59 49 -59q42 0 53 78t28 78q21 0 37 -58.5t59 -58.5q46 0 46 51q0 20 -11 78l62 39
q20 -41 20 -125z" />
    <glyph glyph-name="afii57457_afii57455" unicode="&#x651;&#x64f;" arabic-form="isolated" 
d="M502 1965q0 -88 -66 -129q17 -22 44 -29l-59 -88q-42 8 -88 43q-141 -71 -185 -71q-23 0 -86 60q-13 12 -13 18q0 8 39 10q122 7 187 43q-23 35 -23 70q0 65 73 123q61 48 95 48t58 -31.5t24 -66.5zM419 1933q0 47 -35 47q-16 0 -31 -18t-15 -34q0 -36 39 -58
q42 33 42 63zM484 1557q0 -60 -25 -103q-30 -53 -85 -53q-59 0 -92 29q-58 -82 -118 -82q-94 0 -94 123q0 39 11 76q16 52 46 52q11 0 14 -65q2 -59 49 -59q42 0 53 78t28 78q21 0 37 -58.5t59 -58.5q46 0 46 51q0 20 -11 78l62 39q20 -41 20 -125z" />
    <glyph glyph-name="afii57457_afii57456" unicode="&#x651;&#x650;" arabic-form="isolated" 
d="M476 1484l-391 -138v106l391 137v-105zM487 1798q0 -59 -25 -103q-31 -54 -85 -54q-59 0 -92 29q-59 -82 -119 -82q-94 0 -94 124q0 38 12 75q16 52 45 52q7 0 13.5 -62t50.5 -62q42 0 53 78.5t28 78.5q21 0 37 -58.5t59 -58.5q46 0 46 51q0 20 -12 77l63 39
q20 -40 20 -124z" />
    <glyph glyph-name="uni0644064406510647" unicode="&#xfedf;&#xfee0;&#x651;&#x670;&#xfeea;" horiz-adv-x="1633" 
d="M1081 1424q23 -51 23 -115q0 -129 -62 -129q1 15 1 30q0 83 -34 149zM1252 1066q0 -54 -23 -93q-27 -48 -77 -48q-52 0 -83 26q-51 -74 -106 -74q-85 0 -85 111q0 34 11 68q15 47 41 47q10 0 13 -61q2 -50 44 -50q38 0 47.5 70.5t25.5 70.5q19 0 33.5 -53t52.5 -53
q41 0 41 46q0 19 -10 69l56 36q19 -36 19 -112zM1634 335q0 -201 -108 -290q-73 -60 -178 -60q-181 0 -251 152q-47 -153 -203 -153q-134 0 -204 80q-33 38 -70 135q-29 -53 -83 -115q-18 -7 -77 -7q-103 0 -178 22q-100 29 -100 86q0 95 34 141q69 93 171 159q48 31 157 74
l-12 103l118 96q33 27 38 27q6 0 11 -40q38 -324 59 -385q41 -122 162 -122q95 0 95 125q0 13 -2 33q-13 130 -47 384l188 110q42 -422 64 -509q36 -142 135 -142q88 0 88 129q0 79 -81 474l163 130q12 13 19 13q10 0 15 -26q77 -444 77 -624zM595 289l-33 160
q-195 -70 -226 -142q9 -24 125 -24q62 0 134 6z" />
    <glyph glyph-name="afii57444_afii57410.isol" unicode="&#xfedf;&#xfe82;" horiz-adv-x="1110" arabic-form="isolated" 
d="M1104 990q2 -4 2 -7q0 -5 -14 -5q-20 0 -68 10q0 -259 -82 -444q-51 -115 -112 -167q68 -113 68 -189q0 -151 -108 -206q-73 -37 -313 -37q-81 0 -139 8l77 243q138 63 247 177q-143 181 -359 385q-22 -70 -27 -73q-5 2 -12 11q-155 201 -155 231q0 64 48 220q6 18 9 20
q2 0 15 -10q188 -142 580 -668q78 72 78 245v186q0 71 -30 185l168 164q4 4 8 4q5 0 9 -10q53 -155 110 -273zM785 180q-15 58 -58 99q-85 -67 -154 -112q31 -9 84 -9h20q73 3 108 22zM560 1431q0 -63 -131 -116q-110 -44 -186 -44q-32 0 -85.5 14.5t-72.5 14.5t-39 -30
t-35 -30q-29 0 -29 47q0 30 40 98q44 75 78 75q0 -12 100.5 -32.5t143.5 -20.5q73 0 133 24l60 23q23 0 23 -23z" />
    <glyph glyph-name="afii57444_afii57410.fina" unicode="&#xfee0;&#xfe82;" horiz-adv-x="1273" arabic-form="final" 
d="M1273 1h-35q-179 0 -250 134q-25 48 -39.5 125.5t-18.5 186.5q-122 -335 -261 -450q-23 -19 -427 -41q-12 -1 -22.5 -1.5t-18.5 -0.5q-35 0 -35 6q0 8 63 38q91 44 175.5 92.5t149 93.5t103 82t38.5 59q0 42 -104 172q-125 156 -288 266l-11 -85q-28 26 -58 57t-63 69
q-79 89 -79 114q0 89 26 208q4 23 10 23q3 0 20 -10q333 -239 498 -465q113 -155 129 -277q143 173 143 568q0 78 -6 161l151 119q19 14 23 14q6 0 6 -26v-819q0 -156 164 -156h17v-257zM560 1422q0 -47 -103 -102q-109 -58 -214 -58q-13 0 -36.5 4.5t-48.5 10t-45.5 10
t-27.5 4.5q-9 0 -19 -9.5t-20 -20.5t-19 -20.5t-16 -9.5q-29 0 -29 47q0 30 40 98q43 76 78 76q0 -5 15 -10.5t38.5 -11.5t52 -12t55.5 -10t49.5 -7t33.5 -3h10q31 0 60 6q33 6 63 18l60 23q23 0 23 -23z" />
    <glyph glyph-name="afii57444_afii57411.isol" unicode="&#xfedf;&#xfe84;" horiz-adv-x="1110" arabic-form="isolated" 
d="M1104 990q2 -4 2 -7q0 -5 -14 -5q-20 0 -68 10q0 -259 -82 -444q-51 -115 -112 -167q68 -113 68 -189q0 -151 -108 -206q-73 -37 -313 -37q-81 0 -139 8l77 243q138 63 247 177q-143 181 -359 385q-22 -70 -27 -73q-5 2 -12 11q-155 201 -155 231q0 64 48 220q6 18 9 20
q2 0 15 -10q188 -142 580 -668q78 72 78 245v186q0 71 -30 185l168 164q4 4 8 4q5 0 9 -10q53 -155 110 -273zM785 180q-15 58 -58 99q-85 -67 -154 -112q31 -9 84 -9h20q73 3 108 22zM388 1487q3 -8 3 -23q0 -12 -2 -28q-4 -37 -12 -47q-140 -36 -351 -128l-1 74
q33 18 94 48q-25 11 -49 40q-29 35 -29 67q0 57 68.5 122t126.5 65q29 0 67 -23q42 -25 42 -52q0 -40 -31 -40q-13 0 -45.5 13t-54.5 13q-25 0 -52 -13q-32 -15 -32 -37q0 -35 35.5 -62.5t70.5 -27.5q27 0 80 17q58 18 72 22z" />
    <glyph glyph-name="afii57444_afii57411.fina" unicode="&#xfee0;&#xfe84;" horiz-adv-x="1273" arabic-form="final" 
d="M1273 1h-35q-179 0 -250 134q-25 48 -39.5 125.5t-18.5 186.5q-122 -335 -261 -450q-23 -19 -427 -41q-12 -1 -22.5 -1.5t-18.5 -0.5q-35 0 -35 6q0 8 63 38q91 44 175.5 92.5t149 93.5t103 82t38.5 59q0 42 -104 172q-125 156 -288 266l-11 -85q-28 26 -58 57t-63 69
q-79 89 -79 114q0 89 26 208q4 23 10 23q3 0 20 -10q333 -239 498 -465q113 -155 129 -277q143 173 143 568q0 78 -6 161l151 119q19 14 23 14q6 0 6 -26v-819q0 -156 164 -156h17v-257zM388 1487q3 -9 3 -25q0 -26 -5 -47t-9 -26q-70 -18 -157.5 -50t-193.5 -78l-1 74
q17 9 40 21t54 27q-14 6 -28 18t-25 27t-18 31.5t-7 30.5q0 28 20 61t49.5 61t63.5 46.5t62 18.5q15 0 34 -7t35.5 -18t28 -24.5t11.5 -25.5q0 -40 -31 -40q-5 0 -17.5 4t-27.5 9t-30 9t-25 4q-14 0 -28.5 -4t-27 -11t-20.5 -16t-8 -19q0 -18 10 -34.5t26 -28.5t34.5 -19.5
t35.5 -7.5q12 0 36 5.5t48.5 12.5t44.5 13.5t23 7.5z" />
    <glyph glyph-name="afii57444_afii57413.isol" unicode="&#xfedf;&#xfe88;" horiz-adv-x="1110" arabic-form="isolated" 
d="M1104 990q2 -6 2 -7q0 -5 -14 -5q-22 0 -68 10q0 -261 -82 -444q-51 -115 -112 -167q68 -113 68 -189q0 -151 -108 -206q-73 -37 -313 -37q-41 0 -75.5 2t-63.5 6l77 243q137 63 247 177q-72 91 -161 186.5t-198 198.5q-22 -70 -27 -73q-4 1 -12 11q-155 202 -155 231
q0 64 48 220q6 19 9 20q2 0 15 -10q94 -71 239 -238t341 -430q78 72 78 245v186q0 71 -30 185l168 164q4 4 8 4q5 0 9 -10q26 -78 53.5 -145.5t56.5 -127.5zM785 180q-15 59 -58 99q-84 -67 -154 -112q33 -9 88 -9q85 0 124 22zM441 -363q3 -9 3 -24q0 -26 -5 -47.5
t-9 -26.5q-71 -18 -158.5 -50t-193.5 -78v74q17 9 40 21t54 27q-12 6 -26 18t-26 27t-19.5 31.5t-7.5 30.5q0 57 69 122q70 65 127 65q15 0 34 -7t35.5 -18t28 -24.5t11.5 -25.5q0 -40 -31 -40q-5 0 -17.5 4t-27.5 9t-30 9t-25 4q-14 0 -28.5 -4t-27 -11t-20.5 -16t-8 -19
q0 -18 10.5 -34.5t26.5 -28.5t34.5 -19.5t34.5 -7.5q11 0 33.5 5.5t46.5 12.5t44.5 13t27.5 8z" />
    <glyph glyph-name="afii57444_afii57413.fina" unicode="&#xfee0;&#xfe88;" horiz-adv-x="1273" arabic-form="final" 
d="M1273 1h-35q-180 0 -250 134q-50 95 -58 312q-122 -335 -261 -450q-22 -18 -427 -41q-25 -1 -42 -1q-34 0 -34 5q0 8 63 38q175 84 311 175q155 104 155 152q0 43 -104 172q-125 155 -288 266l-11 -85q-55 51 -121 126q-79 90 -79 114q0 91 26 208q5 21 9 23h1
q5 0 20 -10q333 -238 498 -465q112 -154 129 -277q143 173 143 568q0 79 -6 161l151 119q18 14 23 14q6 0 6 -26v-819q0 -156 164 -156h17v-257zM441 -363q3 -8 3 -23q0 -11 -2 -27q-4 -38 -12 -48q-141 -36 -352 -128v74q33 18 94 48q-27 12 -53 45.5t-26 61.5q0 57 69 122
t127 65q29 0 67 -23q42 -25 42 -52q0 -40 -31 -40q-13 0 -45.5 13t-54.5 13q-25 0 -52 -13q-32 -15 -32 -37q0 -35 35.5 -62.5t70.5 -27.5q26 0 79.5 17t72.5 22z" />
    <glyph glyph-name="afii57444_afii57415.isol" unicode="&#xfedf;&#xfe8e;" horiz-adv-x="1110" arabic-form="isolated" 
d="M1104 990q2 -6 2 -7q0 -5 -14 -5q-22 0 -68 10q0 -261 -82 -444q-51 -115 -112 -167q68 -113 68 -189q0 -151 -108 -206q-73 -37 -313 -37q-41 0 -75.5 2t-63.5 6l77 243q137 63 247 177q-72 91 -161 186.5t-198 198.5q-22 -70 -27 -73q-4 1 -12 11q-155 202 -155 231
q0 64 48 220q6 19 9 20q2 0 15 -10q94 -71 239 -238t341 -430q78 72 78 245v186q0 71 -30 185l168 164q4 4 8 4q5 0 9 -10q26 -78 53.5 -145.5t56.5 -127.5zM785 180q-15 59 -58 99q-84 -67 -154 -112q33 -9 88 -9q85 0 124 22z" />
    <glyph glyph-name="afii57444_afii57415.fina" unicode="&#xfee0;&#xfe8e;" horiz-adv-x="1273" arabic-form="final" 
d="M1273 1h-35q-179 0 -250 134q-25 48 -39.5 125.5t-18.5 186.5q-122 -335 -261 -450q-23 -19 -427 -41q-12 -1 -22.5 -1.5t-18.5 -0.5q-35 0 -35 6q0 8 63 38q91 44 175.5 92.5t149 93.5t103 82t38.5 59q0 42 -104 172q-125 156 -288 266l-11 -85q-28 26 -58 57t-63 69
q-79 89 -79 114q0 89 26 208q4 23 10 23q3 0 20 -10q333 -239 498 -465q113 -155 129 -277q143 173 143 568q0 78 -6 161l151 119q19 14 23 14q6 0 6 -26v-819q0 -156 164 -156h17v-257z" />
    <glyph glyph-name="afii57409" unicode="&#x621;" horiz-adv-x="694" arabic-form="isolated" 
d="M694 312l-37 -148q-84 -15 -235 -70q-164 -59 -248 -109v93q45 47 134 102q-124 55 -124 134q0 85 102.5 184t188.5 99q50 0 94 -22q54 -27 54 -73q0 -63 -48 -63q-23 0 -67.5 13t-69.5 13q-32 0 -73 -30t-41 -60q0 -27 46 -65q55 -46 123 -46q48 0 201 48z" />
    <glyph glyph-name="afii57410.isol" unicode="&#x622;" horiz-adv-x="630" arabic-form="isolated" 
d="M492 223q0 -74 -75 -233q-19 -41 -28 -41q-13 0 -21 92l-95 1057l184 153q18 15 26 15q9 0 9 -21v-1022zM675 1510q0 -47 -103 -102q-109 -58 -214 -58q-32 0 -85.5 14.5t-73.5 14.5q-18 0 -38.5 -29.5t-34.5 -29.5q-30 0 -30 46q0 30 41 99q44 75 77 75q0 -12 100.5 -33
t144.5 -21q47 0 117 24t76 24q23 0 23 -24z" />
    <glyph glyph-name="afii57411.isol" unicode="&#x623;" horiz-adv-x="484" arabic-form="isolated" 
d="M422 227q0 -71 -76 -232q-20 -42 -28 -42q-13 0 -20 93l-95 1056l184 153q18 15 26 15q9 0 9 -21v-1022zM485 1487q3 -9 3 -25q0 -26 -5 -47t-9 -26q-71 -18 -158.5 -50t-193.5 -78v74q17 9 40 21t54 27q-14 6 -28 17.5t-25.5 26.5t-18.5 31.5t-7 31.5q0 57 69 122
q70 65 127 65q15 0 34 -7t35.5 -18t28 -24.5t11.5 -25.5q0 -40 -31 -40q-5 0 -17.5 4t-27.5 9t-30 9t-25 4q-14 0 -28.5 -4t-27 -11t-20.5 -16t-8 -19q0 -18 10 -34.5t26 -28.5t34.5 -19.5t35.5 -7.5q11 0 33.5 5.5t46.5 12.5t44.5 13t27.5 8z" />
    <glyph glyph-name="afii57412.isol" unicode="&#x624;" horiz-adv-x="782" arabic-form="isolated" 
d="M780 38q0 -262 -178 -452q-56 -60 -71 -60q-251 0 -399 51q-15 6 -15 10q0 6 13 10q179 65 347 199q185 147 185 245q-9 0 -27.5 -0.5t-38.5 -0.5t-39 -0.5t-28 -0.5q-79 0 -132.5 10.5t-86 33.5t-46.5 58.5t-14 85.5q0 107 67 242q81 164 192 164q138 0 213 -160
q58 -123 58 -279v-156zM625 291q-11 28 -30 52t-41.5 42t-46.5 28t-45 10q-15 0 -30 -6t-27 -16t-19 -23.5t-7 -28.5q0 -70 112 -70q51 0 134 12zM658 1062q2 -5 2 -10v-13q0 -26 -4 -47t-9 -27q-140 -36 -352 -129l-1 74q17 9 40.5 21t53.5 27q-12 6 -26 18t-25.5 27.5
t-19 31.5t-7.5 30q0 28 20 61t50 61t64 47t62 19q15 0 34 -7t35.5 -18.5t28 -24.5t11.5 -25q0 -41 -31 -41q-6 0 -18.5 4t-27.5 9.5t-29.5 9.5t-24.5 4q-14 0 -29 -4t-27 -11t-20 -16.5t-8 -19.5q0 -18 10 -34t25.5 -28t34 -19.5t36.5 -7.5q14 0 40 6t51.5 13.5t60.5 18.5z
" />
    <glyph glyph-name="afii57413.isol" unicode="&#x625;" horiz-adv-x="484" arabic-form="isolated" 
d="M422 227q0 -71 -76 -232q-20 -42 -28 -42q-13 0 -20 93l-95 1056l184 153q18 15 26 15q9 0 9 -21v-1022zM533 -336q1 -4 1.5 -8.5t0.5 -11.5q0 -25 -5 -49t-9 -29q-140 -36 -351 -129l-1 74q17 9 40.5 21t53.5 28q-12 5 -26 17t-25.5 27.5t-19 32t-7.5 29.5q0 57 69 123
q68 65 127 65q15 0 34 -7t35.5 -18.5t28 -24.5t11.5 -25q0 -41 -31 -41q-5 0 -17.5 4t-27.5 9.5t-30 9.5t-25 4q-13 0 -28 -4t-27.5 -11t-20.5 -16t-8 -19q0 -18 10 -34t25.5 -28.5t34.5 -20t36 -7.5q25 0 62.5 11.5t89.5 27.5z" />
    <glyph glyph-name="afii57414.isol" unicode="&#x626;" horiz-adv-x="1381" arabic-form="isolated" 
d="M1374 488q2 -14 3.5 -24t1.5 -17q0 -16 -7 -16q-6 0 -28 11q-52 28 -166 28q-125 0 -217 -86q-71 -68 -71 -109q0 -48 76 -70q35 -11 156 -28q60 -8 98.5 -22t61.5 -38t32 -59t9 -84q0 -233 -170 -354.5t-497 -121.5q-477 0 -477 393q0 78 48 230q55 177 113 177
q40 0 40 -56q0 -2 -8 -26.5t-23 -70.5q-16 -46 -23 -82.5t-7 -63.5q0 -253 380 -253q164 0 310 33q198 45 198 126q0 44 -116 58q-168 19 -216 38q-117 45 -117 165q0 134 118 315q132 203 281 203q97 0 163 -84q44 -56 54 -112zM538 632q2 -5 2 -10v-13q0 -26 -4 -47
t-9 -27q-140 -36 -352 -129l-1 74q17 9 40.5 21t54.5 28q-13 5 -27 17t-25.5 27t-19 31.5t-7.5 30.5q0 28 20 61t50 61t64 47t62 19q15 0 34 -7t35.5 -18.5t28 -24.5t11.5 -25q0 -41 -31 -41q-6 0 -18.5 4t-27.5 9.5t-29.5 9.5t-24.5 4q-14 0 -28.5 -4.5t-27 -11.5
t-20.5 -16t-8 -18q0 -18 10 -34.5t26 -28.5t34.5 -19.5t35.5 -7.5q14 0 40 6t51.5 13.5t60.5 18.5z" />
    <glyph glyph-name="afii57415.isol" unicode="&#x627;" horiz-adv-x="398" arabic-form="isolated" 
d="M396 227q0 -71 -76 -232q-20 -42 -28 -42q-13 0 -21 93l-95 1056l184 153q18 15 26 15q10 0 10 -21v-1022z" />
    <glyph glyph-name="afii57416.isol" unicode="&#x628;" horiz-adv-x="1547" arabic-form="isolated" 
d="M1545 402q0 -216 -143 -312q-161 -108 -637 -108q-156 0 -267.5 22t-183 67.5t-104.5 115t-33 164.5q0 100 52 194q46 85 78 85q38 0 38 -42q0 -3 -5 -19.5t-10.5 -38t-10.5 -42.5t-5 -33q0 -158 175 -201q76 -19 329 -19q585 0 585 98q0 18 -51 84q-21 28 -38 48t-30 33
l131 165q8 11 11 13t4 2q6 0 15 -12q100 -121 100 -264zM980 -310l-135 -136l-136 136l136 136z" />
    <glyph glyph-name="uni06470654.isol" unicode="&#x6c0;" horiz-adv-x="761" arabic-form="isolated" 
d="M760 314q0 -144 -82.5 -230.5t-226.5 -86.5q-157 0 -227 88q-47 59 -47 147q0 113 89 275q83 151 156 202q150 -58 225 -126q113 -103 113 -269zM647 316q-98 116 -274 173q-67 -74 -67 -167q0 -45 58 -72q52 -24 121 -24q103 0 156 38q17 12 17 27q0 12 -11 25z
M619 1069q2 -9 2 -24q0 -11 -1 -26q-3 -36 -12 -47q-141 -36 -352 -129l-1 74q34 18 94 48q-26 12 -52 46t-26 61q0 57 69 122.5t127 65.5q29 0 67 -23q42 -26 42 -52q0 -41 -31 -41q-13 0 -45.5 13.5t-54.5 13.5q-25 0 -52 -13q-32 -16 -32 -38q0 -35 35 -62t71 -27
q29 0 79 16q66 21 73 22z" />
    <glyph glyph-name="afii57418.isol" unicode="&#x62a;" horiz-adv-x="1547" arabic-form="isolated" 
d="M1545 402q0 -216 -143 -312q-160 -108 -637 -108q-258 0 -392 59q-196 87 -196 310q0 99 52 194q47 85 78 85q38 0 38 -42q0 -10 -15.5 -57t-15.5 -76q0 -158 175 -201q78 -19 329 -19q585 0 585 98q0 18 -51 84q-42 55 -68 81l131 165q12 15 14 15h1q5 0 15 -12
q100 -121 100 -264zM1098 791l-123 -122l-122 122l122 122zM824 791l-122 -122l-122 122l122 122z" />
    <glyph glyph-name="afii57419.isol" unicode="&#x62b;" horiz-adv-x="1547" arabic-form="isolated" 
d="M1545 402q0 -216 -143 -312q-160 -108 -637 -108q-258 0 -392 59q-196 87 -196 310q0 99 52 194q47 85 78 85q38 0 38 -42q0 -10 -15.5 -57t-15.5 -76q0 -158 175 -201q78 -19 329 -19q585 0 585 98q0 18 -51 84q-42 55 -68 81l131 165q12 15 14 15h1q5 0 15 -12
q100 -121 100 -264zM582 735l123 122l122 -122l-122 -123zM855 735l123 122l122 -122l-122 -123zM716 937l123 123l122 -123l-122 -122z" />
    <glyph glyph-name="afii57420.isol" unicode="&#x62c;" horiz-adv-x="1257" arabic-form="isolated" 
d="M1246 -382q-110 -162 -446 -162q-146 0 -261.5 29.5t-196 86t-123 139t-42.5 189.5q0 196 176 354q142 127 361 203q-221 45 -275 45q-63 0 -121 -57q-59 -56 -64 -56q-45 0 -45 37q0 21 13.5 55.5t31.5 68.5t35.5 61.5t24.5 36.5q67 81 166 81q9 0 41 -4.5t76.5 -11
t96.5 -14.5t100 -15.5t87.5 -13t58.5 -7.5q38 -4 74 -6t71 -2q75 0 146 9q5 1 9 1h6q10 0 10 -3q-1 -7 -11 -30l-84 -196q-126 -5 -270 -24q-139 -20 -285 -121q-197 -137 -197 -339q0 -344 491 -344q211 0 331 36q9 3 14 3q10 0 10 -10q0 -7 -9 -19zM989 -11l-135 -135
l-136 135l136 136z" />
    <glyph glyph-name="afii57421.isol" unicode="&#x62d;" horiz-adv-x="1257" arabic-form="isolated" 
d="M1246 -382q-110 -162 -446 -162q-146 0 -261.5 29.5t-196 86t-123 139t-42.5 189.5q0 196 176 354q142 127 361 203q-221 45 -275 45q-63 0 -121 -57q-59 -56 -64 -56q-45 0 -45 37q0 21 13.5 55.5t31.5 68.5t35.5 61.5t24.5 36.5q67 81 166 81q9 0 41 -4.5t76.5 -11
t96.5 -14.5t100 -15.5t87.5 -13t58.5 -7.5q38 -4 74 -6t71 -2q75 0 146 9q5 1 9 1h6q10 0 10 -3q-1 -7 -11 -30l-84 -196q-126 -5 -270 -24q-139 -20 -285 -121q-197 -137 -197 -339q0 -344 491 -344q211 0 331 36q9 3 14 3q10 0 10 -10q0 -7 -9 -19z" />
    <glyph glyph-name="afii57422.isol" unicode="&#x62e;" horiz-adv-x="1257" arabic-form="isolated" 
d="M1246 -382q-110 -162 -446 -162q-146 0 -261.5 29.5t-196 86t-123 139t-42.5 189.5q0 196 176 354q142 127 361 203q-221 45 -275 45q-63 0 -121 -57q-59 -56 -64 -56q-45 0 -45 37q0 21 13.5 55.5t31.5 68.5t35.5 61.5t24.5 36.5q67 81 166 81q9 0 41 -4.5t76.5 -11
t96.5 -14.5t100 -15.5t87.5 -13t58.5 -7.5q38 -4 74 -6t71 -2q75 0 146 9q5 1 9 1h6q10 0 10 -3q-1 -7 -11 -30l-84 -196q-126 -5 -270 -24q-139 -20 -285 -121q-197 -137 -197 -339q0 -344 491 -344q211 0 331 36q9 3 14 3q10 0 10 -10q0 -7 -9 -19zM875 1051l-136 -136
l-136 136l136 136z" />
    <glyph glyph-name="afii57423.isol" unicode="&#x62f;" horiz-adv-x="895" arabic-form="isolated" 
d="M891 364q0 -363 -454 -363q-260 0 -260 243q0 23 3 48q16 133 72 133q32 0 36 -46q5 -63 26 -87q40 -46 162 -46q77 0 166 15q131 22 131 66q0 79 -140 196q-126 106 -208 128l60 224q6 23 13 23q6 0 22 -10q145 -92 248 -222q123 -157 123 -302z" />
    <glyph glyph-name="afii57424.isol" unicode="&#x630;" horiz-adv-x="895" arabic-form="isolated" 
d="M891 364q0 -363 -454 -363q-260 0 -260 243q0 23 3 48q16 133 72 133q32 0 36 -46q5 -63 26 -87q40 -46 162 -46q77 0 166 15q131 22 131 66q0 79 -140 196q-126 106 -208 128l60 224q6 23 13 23q6 0 22 -10q145 -92 248 -222q123 -157 123 -302zM593 1155l-136 -136
l-135 136l135 135z" />
    <glyph glyph-name="afii57425.isol" unicode="&#x631;" horiz-adv-x="769" arabic-form="isolated" 
d="M767 70q0 -161 -65 -302q-47 -100 -125 -181q-58 -61 -72 -61q-80 -7 -145 -7q-185 0 -254 58q-15 4 -15 11q0 4 13 9q186 67 348 192q187 144 187 259q0 48 -68 134q-58 73 -111 113l97 205q5 11 12 11q3 0 12 -7q186 -186 186 -434z" />
    <glyph glyph-name="afii57426.isol" unicode="&#x632;" horiz-adv-x="769" arabic-form="isolated" 
d="M767 70q0 -161 -65 -302q-47 -100 -125 -181q-58 -61 -72 -61q-90 -11 -162 -11q-171 0 -237 62q-15 4 -15 11q0 4 13 9q186 67 348 192q187 144 187 259q0 48 -68 134q-58 73 -111 113l97 205q5 11 12 11q3 0 12 -7q186 -186 186 -434zM654 818l-135 -135l-136 135
l136 136z" />
    <glyph glyph-name="afii57427.isol" unicode="&#x633;" horiz-adv-x="1902" arabic-form="isolated" 
d="M1899 383q0 -139 -57 -247q-71 -135 -202 -135q-115 0 -190 128q-72 -127 -174 -127q-36 0 -76 14q7 -51 7 -98q0 -243 -183 -359q-152 -97 -410 -97q-231 0 -344 127q-91 102 -91 258q0 79 48 230q56 177 113 177q40 0 40 -56q0 -5 -30.5 -97t-30.5 -146
q0 -142 113 -199q82 -41 243 -41q158 0 287 49q148 56 148 146q0 56 -87 176q-74 102 -133 154l99 202q6 11 12 11q7 0 14 -11q127 -184 247 -184q73 0 104 60q7 13 31 111q15 60 50 60q33 0 46 -61q19 -88 35 -114q38 -61 131 -61q112 0 112 84q0 42 -86 149l91 141
q17 27 20 28q6 -3 20 -21q25 -32 50 -96q33 -85 33 -155z" />
    <glyph glyph-name="afii57428.isol" unicode="&#x634;" horiz-adv-x="1902" arabic-form="isolated" 
d="M1899 383q0 -139 -57 -247q-71 -135 -202 -135q-115 0 -190 128q-72 -127 -174 -127q-36 0 -76 14q7 -51 7 -98q0 -243 -183 -359q-152 -97 -410 -97q-231 0 -344 127q-91 102 -91 258q0 79 48 230q56 177 113 177q40 0 40 -56q0 -5 -30.5 -97t-30.5 -146
q0 -142 113 -199q82 -41 243 -41q158 0 287 49q148 56 148 146q0 56 -87 176q-74 102 -133 154l99 202q6 11 12 11q7 0 14 -11q127 -184 247 -184q73 0 104 60q7 13 31 111q15 60 50 60q33 0 46 -61q19 -88 35 -114q38 -61 131 -61q112 0 112 84q0 42 -86 149l91 141
q17 27 20 28q6 -3 20 -21q25 -32 50 -96q33 -85 33 -155zM1199 862l122 123l123 -123l-123 -122zM1472 862l122 123l123 -123l-123 -122zM1333 1065l122 122l123 -122l-123 -122z" />
    <glyph glyph-name="afii57429.isol" unicode="&#x635;" horiz-adv-x="1920" arabic-form="isolated" 
d="M1918 458q0 -148 -123 -286q-153 -171 -402 -171q-125 0 -229 36q13 -62 13 -121q0 -232 -171 -351q-149 -103 -392 -103q-231 0 -344 127q-91 102 -91 258q0 79 48 230q56 177 113 177q40 0 40 -56q0 -5 -30.5 -97t-30.5 -146q0 -142 113 -199q82 -41 243 -41
q158 0 273 52q135 61 135 167q0 55 -82 167q-69 94 -129 146l93 193q8 16 16 16t16 -14q60 -98 148 -164q308 401 527 401q102 0 172 -59q74 -62 74 -162zM1756 347q0 62 -66 97q-53 29 -121 29q-129 0 -320 -218q83 -6 155 -6q174 0 274 37q78 29 78 61z" />
    <glyph glyph-name="afii57430.isol" unicode="&#x636;" horiz-adv-x="1920" arabic-form="isolated" 
d="M1918 458q0 -148 -123 -286q-153 -171 -402 -171q-125 0 -229 36q13 -62 13 -121q0 -232 -171 -351q-149 -103 -392 -103q-231 0 -344 127q-91 102 -91 258q0 79 48 230q56 177 113 177q40 0 40 -56q0 -5 -30.5 -97t-30.5 -146q0 -142 113 -199q82 -41 243 -41
q158 0 273 52q135 61 135 167q0 55 -82 167q-69 94 -129 146l93 193q8 16 16 16t16 -14q60 -98 148 -164q308 401 527 401q102 0 172 -59q74 -62 74 -162zM1756 347q0 62 -66 97q-53 29 -121 29q-129 0 -320 -218q83 -6 155 -6q174 0 274 37q78 29 78 61zM1625 979
l-135 -136l-136 136l136 135z" />
    <glyph glyph-name="afii57431.isol" unicode="&#x637;" horiz-adv-x="1343" arabic-form="isolated" 
d="M1337 460q0 -257 -243 -373q-180 -86 -470 -86q-195 0 -289 50q-109 58 -161 216q107 -10 249 -10q44 0 91 1v76q0 396 -91 763l187 171q37 -107 104 -279q3 -6 5 -15q0 -6 -9 -6q-11 0 -70 15q13 -144 13 -254q0 -152 -29 -356q86 96 204 183q171 126 285 126
q74 0 140 -49q84 -62 84 -173zM1181 351q0 49 -59 90q-54 37 -105 37q-166 0 -367 -220h184q102 0 196 15q151 24 151 78z" />
    <glyph glyph-name="afii57432.isol" unicode="&#x638;" horiz-adv-x="1343" arabic-form="isolated" 
d="M1337 460q0 -257 -243 -373q-180 -86 -470 -86q-195 0 -289 50q-109 58 -161 216q107 -10 249 -10q44 0 91 1v76q0 396 -91 763l187 171q37 -107 104 -279q3 -6 5 -15q0 -6 -9 -6q-11 0 -70 15q13 -144 13 -254q0 -152 -29 -356q86 96 204 183q171 126 285 126
q74 0 140 -49q84 -62 84 -173zM1181 351q0 49 -59 90q-54 37 -105 37q-166 0 -367 -220h184q102 0 196 15q151 24 151 78zM1183 989l-136 -135l-135 135l135 136z" />
    <glyph glyph-name="afii57433.isol" unicode="&#x639;" horiz-adv-x="1187" arabic-form="isolated" 
d="M1175 -366q-99 -176 -465 -176q-217 0 -360 86q-173 104 -173 307q0 148 123 267q104 101 252 146q-67 20 -119 69q-67 63 -67 143q0 113 116 241q125 137 262 137q52 0 117 -38q79 -46 114 -117q17 -34 17 -49q0 -13 -13 -13q-6 0 -39 10q-86 26 -173 26q-82 0 -166 -30
q-91 -32 -91 -74q0 -44 56 -96q77 -71 214 -71q103 0 290 47q18 5 25 5q3 0 4 -1t1 -3q0 -5 -7 -20l-84 -192q-606 -49 -606 -330q0 -158 153 -235q119 -60 293 -60q158 0 305 35q22 5 28 5h2q-1 -5 -9 -19z" />
    <glyph glyph-name="afii57434.isol" unicode="&#x63a;" horiz-adv-x="1187" arabic-form="isolated" 
d="M1175 -366q-99 -176 -465 -176q-217 0 -360 86q-173 104 -173 307q0 148 123 267q104 101 252 146q-67 20 -119 69q-67 63 -67 143q0 113 116 241q125 137 262 137q52 0 117 -38q79 -46 114 -117q17 -34 17 -49q0 -13 -13 -13q-6 0 -39 10q-86 26 -173 26q-82 0 -166 -30
q-91 -32 -91 -74q0 -44 56 -96q77 -71 214 -71q103 0 290 47q18 5 25 5q3 0 4 -1t1 -3q0 -5 -7 -20l-84 -192q-606 -49 -606 -330q0 -158 153 -235q119 -60 293 -60q158 0 305 35q22 5 28 5h2q-1 -5 -9 -19zM857 1121l-136 -135l-135 135l135 136z" />
    <glyph glyph-name="afii57441.isol" unicode="&#x641;" horiz-adv-x="1524" arabic-form="isolated" 
d="M1521 418q0 -244 -136 -335q-73 -49 -301 -78q-176 -23 -319 -23q-258 0 -392 59q-196 87 -196 310q0 99 52 194q47 85 78 85q38 0 38 -42q0 -10 -15.5 -57t-15.5 -76q0 -158 175 -201q78 -19 329 -19q380 0 568 73q36 14 36 53q0 24 -30 24q-5 0 -10 -1
q-129 -12 -179 -12q-199 0 -199 147q0 121 61 240q74 144 188 144q156 0 225 -204q43 -127 43 -281zM1370 568q-28 69 -85 105q-43 27 -79 27q-31 0 -57 -21.5t-26 -52.5q0 -70 136 -70q51 0 111 12zM1380 1148l-135 -136l-136 136l136 135z" />
    <glyph glyph-name="afii57442.isol" unicode="&#x642;" horiz-adv-x="1260" arabic-form="isolated" 
d="M1255 -34q0 -472 -641 -472q-231 0 -344 127q-91 102 -91 257q0 79 48 230q56 177 113 177q40 0 40 -55q0 -6 -30.5 -98t-30.5 -145q0 -142 113 -199q81 -41 243 -42h7q145 0 282 38q190 53 190 161q0 27 -12 57q-27 0 -80 -1.5t-80 -1.5q-129 0 -188 28q-80 38 -80 138
q0 129 61 261q75 163 188 163q134 0 218 -149q74 -131 74 -296v-178zM1087 243q-27 67 -85 104q-44 28 -79 28q-31 0 -57 -21.5t-26 -52.5q0 -70 136 -70q51 0 111 12zM1203 870l-122 -122l-123 122l123 123zM930 870l-122 -122l-123 122l123 123z" />
    <glyph glyph-name="afii57443.isol" unicode="&#x643;" horiz-adv-x="1460" arabic-form="isolated" 
d="M1443 988q2 -4 3 -8t3 -9q-1 -4 -12 -4q-8 0 -23 2t-36 6q5 -88 8 -231t3 -344v-12q0 -219 -143 -326q-53 -39 -251 -61q-82 -10 -117 -14.5t-113 -4.5q-281 0 -400 52q-188 80 -188 317q0 43 13.5 92.5t33.5 90.5t42.5 68.5t40.5 27.5q38 0 38 -42q0 -3 -5 -19.5
t-10.5 -38t-10.5 -42.5t-5 -33q0 -160 155 -201q70 -19 312 -19q60 0 164 4.5t168.5 15.5t93.5 30t29 48v3q0 4 -1 7v3q0 6 -2 30t-4.5 51.5t-4.5 51.5t-3 31q-17 182 -38 326.5t-44 256.5l184 165q7 6 12 6t17.5 -30t28 -73t32 -90.5t30.5 -82.5zM938 746q3 -9 3 -24
q0 -26 -5 -47.5t-9 -26.5q-71 -18 -158.5 -50t-193.5 -78v74q17 9 40 21t54 27q-14 6 -28 18.5t-25 27.5t-18.5 31t-7.5 30q0 28 20 61t50 61t64 46.5t62 18.5q15 0 34 -7t35.5 -18t28 -24.5t11.5 -25.5q0 -40 -31 -40q-5 0 -17.5 4t-27.5 9t-30 9t-25 4q-14 0 -28.5 -4
t-27 -11t-20.5 -16t-8 -19q0 -18 10 -34.5t26 -28.5t34.5 -19.5t35.5 -7.5q11 0 33.5 5.5t46.5 12.5t44.5 13t27.5 8z" />
    <glyph glyph-name="afii57444.isol" unicode="&#x644;" horiz-adv-x="1211" arabic-form="isolated" 
d="M1198 988q2 -4 3 -8t3 -9q-1 -4 -12 -4q-8 0 -23 2t-36 6q5 -94 8 -249t3 -375v-149q0 -77 -1 -162q-3 -528 -556 -528q-412 0 -412 369q0 86 43 203q45 126 85 126q37 0 37 -48q0 -8 -6 -31.5t-12.5 -51.5t-12.5 -54.5t-6 -39.5q0 -218 312 -218q209 0 318 67
q76 46 76 87q0 241 -33 589q-17 182 -38 326.5t-44 256.5l184 165q7 6 12 6q7 0 10 -11q19 -54 43 -120t55 -145z" />
    <glyph glyph-name="afii57445.isol" unicode="&#x645;" horiz-adv-x="969" arabic-form="isolated" 
d="M966 346q0 -80 -45 -170q-62 -124 -173 -124q-60 0 -178.5 23.5t-178.5 23.5q-69 0 -69 -43q0 -7 1 -17q24 -228 24 -340q0 -39 -3 -64q-3 -23 -40 -85q-16 -26 -49 -79q-13 -22 -20 -22q-9 0 -11 37q-8 148 -29 377q-18 197 -18 233q0 101 67 160t169 59q-1 13 -5.5 42
t-4.5 45q0 67 69 156q76 99 160 99q99 0 219 -118q115 -113 115 -193zM812 288q-43 54 -106 98q-76 54 -132 54q-51 0 -51 -51l-1 -69q1 -16 19 -20q71 -15 250 -49q8 -1 14 -1q19 0 19 13q0 10 -12 25z" />
    <glyph glyph-name="afii57446.isol" unicode="&#x646;" horiz-adv-x="1244" arabic-form="isolated" 
d="M1242 -37q0 -288 -177 -405q-145 -96 -451 -96q-231 0 -344 127q-91 102 -91 258q0 79 48 230q56 177 113 177q40 0 40 -56q0 -5 -30.5 -97t-30.5 -146q0 -142 113 -199q82 -41 243 -41q150 0 271 32q186 49 186 158q0 57 -77 177q-70 109 -123 156l105 215q5 11 11 11
q7 0 14 -11q180 -259 180 -490zM831 588l-136 -136l-136 136l136 135z" />
    <glyph glyph-name="afii57448.isol" unicode="&#x648;" horiz-adv-x="782" arabic-form="isolated" 
d="M780 38q0 -262 -178 -452q-56 -60 -71 -60q-99 -11 -175 -11q-176 0 -224 62q-15 6 -15 10q0 6 13 10q179 65 347 199q185 147 185 245q-9 0 -27.5 -0.5t-38.5 -0.5t-39 -0.5t-28 -0.5q-79 0 -132.5 10.5t-86 33.5t-46.5 58.5t-14 85.5q0 107 67 242q81 164 192 164
q138 0 213 -160q58 -123 58 -279v-156zM625 291q-11 28 -30 52t-41.5 42t-46.5 28t-45 10q-15 0 -30 -6t-27 -16t-19 -23.5t-7 -28.5q0 -70 112 -70q51 0 134 12z" />
    <glyph glyph-name="uni0671.isol" unicode="&#x671;" horiz-adv-x="533" arabic-form="isolated" 
d="M550 1344q0 -128 -136 -128q-38 0 -94.5 30.5t-83.5 30.5q-37 0 -70 -31l-41 21q75 93 148 93q16 0 34 -3q17 26 63.5 53.5t76.5 27.5q39 0 71 -27.5t32 -66.5zM492 1316q-19 41 -64 41q-48 0 -92 -29q28 -25 93 -25q38 0 63 13zM454 212q0 -61 -71 -210q-18 -38 -26 -38
q-11 0 -19 84l-87 958l170 139q15 12 23 12q10 0 10 -18v-927z" />
    <glyph glyph-name="afii57506.isol" unicode="&#x67e;" horiz-adv-x="1547" arabic-form="isolated" 
d="M1545 402q0 -216 -143 -312q-161 -108 -637 -108q-156 0 -267.5 22t-183 67.5t-104.5 115t-33 164.5q0 100 52 194q46 85 78 85q38 0 38 -42q0 -3 -5 -19.5t-10.5 -38t-10.5 -42.5t-5 -33q0 -158 175 -201q76 -19 329 -19q585 0 585 98q0 18 -51 84q-21 28 -38 48t-30 33
l131 165q8 11 11 13t4 2q6 0 15 -12q100 -121 100 -264zM1113 -230l-122 -122l-122 122l122 123zM840 -230l-122 -122l-123 122l123 123zM980 -433l-123 -122l-122 122l122 123z" />
    <glyph glyph-name="afii57507.isol" unicode="&#x686;" horiz-adv-x="1257" arabic-form="isolated" 
d="M1246 -382q-110 -162 -446 -162q-146 0 -261.5 29.5t-196 86t-123 139t-42.5 189.5q0 196 176 354q142 127 361 203q-221 45 -275 45q-63 0 -121 -57q-59 -56 -64 -56q-45 0 -45 37q0 21 13.5 55.5t31.5 68.5t35.5 61.5t24.5 36.5q67 81 166 81q9 0 41 -4.5t76.5 -11
t96.5 -14.5t100 -15.5t87.5 -13t58.5 -7.5q38 -4 74 -6t71 -2q75 0 146 9q5 1 9 1h6q10 0 10 -3q-1 -7 -11 -30l-84 -196q-126 -5 -270 -24q-139 -20 -285 -121q-197 -137 -197 -339q0 -344 491 -344q211 0 331 36q9 3 14 3q10 0 10 -10q0 -7 -9 -19zM1153 39l-122 -123
l-123 123l123 122zM880 39l-122 -123l-123 123l123 122zM1019 -164l-122 -122l-123 122l123 123z" />
    <glyph glyph-name="afii57508.isol" unicode="&#x698;" horiz-adv-x="769" arabic-form="isolated" 
d="M767 70q0 -161 -65 -302q-47 -100 -125 -181q-58 -61 -72 -61q-80 -7 -145 -7q-185 0 -254 58q-15 4 -15 11q0 4 13 9q186 67 348 192q187 144 187 259q0 48 -68 134q-58 73 -111 113l97 205q5 11 12 11q3 0 12 -7q186 -186 186 -434zM256 792l123 122l122 -122
l-122 -123zM529 792l123 122l122 -122l-122 -123zM390 994l123 123l122 -123l-122 -122z" />
    <glyph glyph-name="uni06A9.isol" unicode="&#x6a9;" horiz-adv-x="1744" arabic-form="isolated" 
d="M1795 1242l-42 -227q-160 -52 -530 -183q124 -124 179 -208q77 -118 77 -236q0 -219 -143 -326q-51 -38 -251 -61q-164 -19 -320 -19q-280 0 -400 52q-188 80 -188 317q0 99 52 194q47 85 78 85q38 0 38 -42q0 -10 -15.5 -57t-15.5 -76q0 -160 155 -201q72 -19 349 -19
q336 0 455 27q90 20 90 71q0 65 -123 200q-113 124 -209 184l49 258q227 91 715 267z" />
    <glyph glyph-name="afii57509.isol" unicode="&#x6af;" horiz-adv-x="1736" arabic-form="isolated" 
d="M1767 1305l-21 -108q-287 -68 -608 -164l34 112q270 84 595 160zM1807 1107l-60 -216q-280 -44 -516 -113q96 -72 167 -174q81 -117 81 -216q0 -219 -143 -326q-51 -38 -251 -61q-164 -19 -320 -19q-280 0 -400 52q-188 80 -188 317q0 99 52 194q47 85 78 85q38 0 38 -42
q0 -10 -15.5 -57t-15.5 -76q0 -160 155 -201q72 -19 349 -19q336 0 455 27q90 20 90 71q0 64 -123 184q-104 102 -208 167l43 228q205 77 732 195z" />
    <glyph glyph-name="uni06CC.isol" unicode="&#x6cc;" horiz-adv-x="1381" arabic-form="isolated" 
d="M1374 488q2 -14 3.5 -24t1.5 -17q0 -16 -7 -16q-6 0 -28 11q-52 28 -166 28q-125 0 -217 -86q-71 -68 -71 -109q0 -48 76 -70q35 -11 156 -28q60 -8 98.5 -22t61.5 -38t32 -59t9 -84q0 -233 -170 -354.5t-497 -121.5q-477 0 -477 393q0 78 48 230q55 177 113 177
q40 0 40 -56q0 -2 -8 -26.5t-23 -70.5q-16 -46 -23 -82.5t-7 -63.5q0 -253 380 -253q164 0 310 33q198 45 198 126q0 44 -116 58q-168 19 -216 38q-117 45 -117 165q0 134 118 315q132 203 281 203q97 0 163 -84q44 -56 54 -112z" />
    <glyph glyph-name="uni0671.fina" unicode="&#x671;" horiz-adv-x="581" arabic-form="final" 
d="M581 1h-91q-99 0 -169 66q-93 88 -93 269q0 123 -15 371q-17 281 -33 366q-2 10 -2 18q0 14 6 20l165 134q30 24 35 24l1 -1q6 -1 6 -28l-2 -841q0 -142 159 -142h33v-256zM550 1450q0 -128 -136 -128q-38 0 -94.5 30.5t-83.5 30.5q-37 0 -70 -32l-41 21q75 93 148 93
q16 0 34 -3q17 26 63.5 53.5t76.5 27.5q39 0 71 -27t32 -66zM492 1431q-19 40 -64 40q-48 0 -92 -28q38 -35 96 -35q37 0 60 23z" />
    <glyph glyph-name="afii57506.fina" unicode="&#x67e;" horiz-adv-x="1693" arabic-form="final" 
d="M1693 1h-48q-91 0 -166 63q-61 51 -82 114q-143 -123 -341 -167q-129 -29 -335 -29q-544 0 -544 369q0 100 48 194q43 85 74 85q38 0 38 -42q0 -12 -12.5 -59.5t-12.5 -75.5q0 -137 154 -186q101 -32 308 -32q386 0 583 146q31 23 86 83q43 47 62 47q35 0 35 -49
q0 -22 -49 -127q31 -77 169 -77h33v-257zM1113 -230l-122 -122l-122 122l122 123zM840 -230l-122 -122l-123 122l123 123zM980 -433l-123 -122l-122 122l122 123z" />
    <glyph glyph-name="afii57506.init" unicode="&#x67e;" horiz-adv-x="537" arabic-form="initial" 
d="M367 392q0 -89 -20.5 -161t-58.5 -123t-93 -79t-125 -28h-140v257h155q144 0 144 54q0 48 -112 170q-7 6 -7 15t7 17l117 163q9 12 17 12q7 0 13 -7q21 -23 40 -57.5t33 -74t22 -81t8 -77.5zM541 -230l-123 -122l-122 122l122 123zM268 -230l-123 -122l-122 122l122 123z
M407 -433l-122 -122l-123 122l123 123z" />
    <glyph glyph-name="afii57506.medi" unicode="&#x67e;" horiz-adv-x="715" arabic-form="medial" 
d="M715 1h-68q-77 0 -148.5 40.5t-110.5 106.5q-39 -66 -109 -106.5t-147 -40.5h-202v257h162q146 0 202 65q29 33 45 121q12 65 49 65q36 0 47 -65q15 -89 38 -121q45 -65 166 -65h76v-257zM611 -230l-122 -122l-123 122l123 123zM338 -230l-122 -122l-123 122l123 123z
M477 -433l-122 -122l-122 122l122 123z" />
    <glyph glyph-name="afii57507.fina" unicode="&#x686;" horiz-adv-x="1374" arabic-form="final" 
d="M1374 1h-116q-171 0 -267 79q-104 86 -104 254q0 37 5 78q-159 -34 -288 -123q-195 -134 -195 -337q0 -344 491 -344q211 0 331 36q9 3 14 3q7 0 9 -5q1 -2 1 -4q0 -7 -9 -20q-110 -162 -446 -162q-258 0 -420 91q-203 115 -203 353q0 197 176 354q141 126 361 203
q-221 45 -275 45q-62 0 -121 -56.5t-64 -56.5q-45 0 -45 37q0 32 29 91q48 97 76 131q68 81 166 81q33 0 175 -24q190 -32 285 -42q77 -8 147 -8q75 0 144 9q11 1 17 1q12 0 12 -4q0 -5 -11 -29l-88 -196q-76 0 -166 -10q0 -116 102 -151q49 -17 171 -17h106v-257zM1056 -14
l-122 -123l-123 123l123 122zM783 -14l-122 -123l-123 123l123 122zM922 -217l-122 -122l-123 122l123 123z" />
    <glyph glyph-name="afii57507.init" unicode="&#x686;" horiz-adv-x="1120" arabic-form="initial" 
d="M1113 468l-129 -185q-129 0 -279 -73q-91 -47 -275 -136q-163 -73 -372 -73h-128v257h155q213 0 345 31q109 26 243 94q-53 20 -159 61q-127 48 -180 48q-59 0 -116.5 -50.5t-68.5 -50.5q-40 0 -40 45q0 30 29 82q110 195 246 195q65 0 309.5 -110.5t373.5 -110.5
q52 0 52 -10q-1 -7 -6 -14zM924 -181l-122 -123l-123 123l123 122zM651 -181l-122 -123l-123 123l123 122zM790 -384l-122 -122l-123 122l123 122z" />
    <glyph glyph-name="afii57507.medi" unicode="&#x686;" horiz-adv-x="1234" arabic-form="medial" 
d="M1234 1h-173q-328 0 -328 308q-333 -308 -678 -308h-125v257h152q181 0 313 47q91 33 282 144q-233 81 -345 81q-59 0 -116.5 -59.5t-68.5 -59.5q-38 0 -38 35q0 38 17 72q116 234 268 234q68 0 284 -70.5t356 -70.5q79 0 79 -7q-1 -2 -7 -16l-85 -183q-111 0 -184 -30
q0 -77 89 -103q49 -14 154 -14h154v-257zM871 -181l-122 -123l-123 123l123 122zM598 -181l-122 -123l-123 123l123 122zM737 -384l-122 -122l-123 122l123 122z" />
    <glyph glyph-name="afii57508.fina" unicode="&#x698;" horiz-adv-x="928" arabic-form="final" 
d="M928 1h-18q-96 0 -150 26q0 -304 -184 -482q-56 -54 -71 -54q-267 0 -399 51q-14 6 -14 10t12 9q180 67 351 195q190 142 190 246q0 20 -14.5 49t-39.5 63t-58 69t-70 67l105 212q4 9 10 9q4 0 12 -9q150 -204 277 -204h61v-257zM274 757l122 122l123 -122l-123 -123z
M547 757l122 122l123 -122l-123 -123zM408 959l122 123l123 -123l-123 -122z" />
    <glyph glyph-name="uni06A9.fina" unicode="&#x6a9;" horiz-adv-x="2028" arabic-form="final" 
d="M2028 1h-130q-97 0 -205 91q-63 53 -219 228q-7 -160 -138 -258q-51 -38 -251 -61q-164 -19 -320 -19q-280 0 -400 52q-188 80 -188 317q0 99 52 194q47 85 78 85q38 0 38 -42q0 -10 -15.5 -57t-15.5 -76q0 -160 155 -201q72 -19 349 -19q336 0 455 27q90 20 90 71
q0 65 -123 200q-113 124 -209 184l49 258q419 167 760 278l-52 -228q-177 -56 -565 -193q152 -145 332 -335q136 -144 188 -183q74 -56 154 -56h131v-257z" />
    <glyph glyph-name="uni06A9.init" unicode="&#x6a9;" horiz-adv-x="777" arabic-form="initial" 
d="M826 1242l-42 -227q-160 -52 -530 -183q124 -124 179 -208q77 -118 77 -236q0 -387 -422 -387h-158v257h121q212 0 285 19q58 15 58 56q0 65 -123 200q-113 124 -209 184l49 258q227 91 715 267z" />
    <glyph glyph-name="uni06A9.medi" unicode="&#x6a9;" horiz-adv-x="1083" arabic-form="medial" 
d="M1083 1h-154q-97 0 -205 91q-63 53 -219 228q-15 -319 -374 -319h-201v257h167q297 0 297 75q0 73 -123 205q-107 115 -209 179l49 258q419 167 760 278l-52 -228q-177 -56 -565 -193q152 -145 332 -335q136 -144 188 -183q74 -56 154 -56h155v-257z" />
    <glyph glyph-name="afii57509.fina" unicode="&#x6af;" horiz-adv-x="2028" arabic-form="final" 
d="M1808 1315l-22 -107q-294 -61 -646 -171l34 112q244 75 634 166zM2028 1h-130q-97 0 -205 91q-63 53 -219 228q-8 -167 -129 -258q-48 -36 -255 -60q-173 -20 -325 -20q-280 0 -400 52q-188 80 -188 317q0 99 52 194q47 85 78 85q38 0 38 -42q0 -10 -15.5 -57t-15.5 -76
q0 -160 155 -201q72 -19 349 -19q336 0 455 27q90 20 90 71q0 64 -123 185q-105 103 -209 169l49 235q482 145 769 193l-66 -217q-318 -50 -560 -116q155 -130 328 -297q142 -137 189 -171q77 -56 157 -56h131v-257z" />
    <glyph glyph-name="afii57509.init" unicode="&#x6af;" horiz-adv-x="777" arabic-form="initial" 
d="M798 1305l-21 -108q-337 -82 -608 -164l34 112q270 84 595 160zM838 1107l-60 -216q-280 -44 -516 -113q96 -72 167 -174q81 -117 81 -216q0 -209 -108 -301q-100 -86 -314 -86h-158v257h121q212 0 285 19q58 15 58 56q0 64 -122 184q-103 101 -209 167l43 228
q205 77 732 195z" />
    <glyph glyph-name="afii57509.medi" unicode="&#x6af;" horiz-adv-x="1057" arabic-form="medial" 
d="M839 1315l-22 -107q-394 -97 -646 -171l34 112q244 75 634 166zM1057 1h-128q-97 0 -205 91q-63 53 -219 228q-8 -167 -129 -258q-38 -28 -156 -46q-101 -15 -188 -15h-102v257h102q362 0 362 75q0 64 -123 185q-105 103 -209 169l49 235q482 145 769 193l-66 -217
q-318 -50 -560 -116q155 -130 328 -297q142 -137 189 -171q77 -56 157 -56h129v-257z" />
    <glyph glyph-name="uni06CC.fina" unicode="&#x6cc;" horiz-adv-x="1431" arabic-form="final" 
d="M1431 1h-60q-54 0 -161.5 15t-161.5 15q-45 0 -86 -12q-59 -18 -59 -53q0 -21 53 -28q46 -5 137 -16q114 -14 159 -36q58 -28 58 -90q0 -209 -224 -302q-158 -65 -402 -65q-507 0 -507 371q0 101 66 245q63 138 99 138q47 0 47 -42q0 -7 -28 -83t-28 -139
q0 -164 164 -219q101 -34 327 -34q77 0 203 22q152 26 152 61q0 17 -104 25q-140 10 -194 26q-105 30 -105 102q0 110 105 216q138 140 380 140h170v-257z" />
    <glyph glyph-name="afii57415_afii57451.fina" unicode="&#xfd3c;" horiz-adv-x="615" arabic-form="final" 
d="M615 0l-90 1q-98 0 -168 66q-94 89 -94 269q0 116 -15 371q-16 277 -33 366q-2 10 -2 18q0 14 6 20l165 134q30 24 35 24l1 -1q6 -1 6 -28l-1 -841q0 -142 158 -142l32 -1v-256zM502 1423l-391 -139v106l391 137v-104zM502 1634l-391 -138v105l391 138v-105z" />
    <glyph glyph-name="afii57415_afii57451.isol" unicode="&#xfd3d;" horiz-adv-x="505" arabic-form="isolated" 
d="M431 227q0 -70 -76 -232q-20 -42 -28 -42q-12 0 -20 93l-96 1056l185 153q18 15 25 15q10 0 10 -21v-1022zM502 1423l-391 -139v106l391 137v-104zM502 1634l-391 -138v105l391 138v-105z" />
    <glyph glyph-name="afii57410.fina" unicode="&#x622;" horiz-adv-x="669" arabic-form="final" 
d="M669 1h-91q-99 0 -169 66q-93 88 -93 269q0 116 -15 371q-17 283 -33 366q-2 11 -2 18q0 14 6 20l165 134q30 24 35 24l1 -1q6 -1 6 -28l-2 -841q0 -142 159 -142h33v-256zM675 1510q0 -47 -103 -102q-109 -58 -214 -58q-32 0 -85.5 14.5t-73.5 14.5q-18 0 -38.5 -29.5
t-34.5 -29.5q-30 0 -30 46q0 30 41 99q44 75 77 75q1 -12 101 -33t144 -21q47 0 117 24t76 24q23 0 23 -24z" />
    <glyph glyph-name="afii57411.fina" unicode="&#x623;" horiz-adv-x="599" arabic-form="final" 
d="M599 1h-92q-98 0 -168 66q-93 88 -93 269q0 123 -15 371q-17 273 -34 366q-2 9 -2 17q0 14 7 21l164 134q29 24 35 24q1 0 1 -1q7 -1 7 -28l-2 -841q0 -142 159 -142h33v-256zM477 1487q2 -7 2 -20t-2 -31q-4 -37 -12 -47q-140 -36 -351 -128l-1 74q33 18 94 48
q-27 12 -52.5 45.5t-25.5 61.5q0 57 69 122t126 65q30 0 67 -23q42 -25 42 -52q0 -40 -30 -40q-14 0 -46.5 13t-54.5 13q-25 0 -52 -13q-32 -15 -32 -37q0 -35 35.5 -62.5t70.5 -27.5q27 0 80 17q58 19 73 22z" />
    <glyph glyph-name="afii57412.fina" unicode="&#x624;" horiz-adv-x="920" arabic-form="final" 
d="M920 1h-147q0 -252 -172 -448q-55 -62 -70 -62q-251 0 -399 51q-15 4 -15 10q0 4 13 9q174 63 347 200q185 146 185 244h-25q-20 0 -41.5 -0.5t-40.5 -0.5h-26q-138 0 -196 30q-83 42 -83 158q0 106 67 241q81 165 192 165q49 0 92.5 -25t78 -70t58.5 -107.5t35 -137.5
h147v-257zM625 255q-11 28 -30 52.5t-41.5 42.5t-46.5 28t-45 10q-15 0 -30 -6t-27 -16t-19 -23.5t-7 -28.5q0 -70 112 -70q26 0 59 3t75 8zM658 1027q2 -5 2 -10v-13q0 -26 -4 -47.5t-9 -27.5q-71 -18 -158.5 -50t-193.5 -78l-1 74q17 9 40.5 21t53.5 27q-12 6 -26 18
t-25.5 27.5t-19 31.5t-7.5 30q0 57 69 122q70 65 127 65q15 0 34 -7t35.5 -18t28 -24.5t11.5 -25.5q0 -40 -31 -40q-5 0 -17.5 4t-27.5 9t-30 9t-25 4q-14 0 -28.5 -4t-27 -11t-20.5 -16t-8 -19q0 -17 10 -33.5t25 -29t34 -20t37 -7.5q11 0 35 6t48.5 13t45 13t23.5 7z" />
    <glyph glyph-name="afii57413.fina" unicode="&#x625;" horiz-adv-x="617" arabic-form="final" 
d="M617 1h-92q-59 0 -107 23t-82.5 66.5t-53.5 105.5t-19 140q0 116 -15 371q-17 277 -33 366q-1 5 -1.5 9.5t-0.5 8.5q0 12 6 20l165 134q30 24 35 24l1 -1q6 -2 6 -28l-1 -841q0 -142 158 -142h34v-256zM595 -310q2 -10 2 -20q0 -26 -5 -49.5t-9 -28.5q-70 -18 -157.5 -50
t-193.5 -78l-1 74q17 9 40 21t54 27q-13 6 -26.5 18t-25 27t-19 31.5t-7.5 30.5q0 57 69 122q70 65 126 65q15 0 34 -7t35.5 -18t28 -24.5t11.5 -25.5q0 -40 -30 -40q-6 0 -18.5 4t-27.5 9t-30 9t-25 4q-14 0 -28.5 -4t-27 -11t-20.5 -16t-8 -19q0 -18 10.5 -34.5
t26.5 -28.5t34.5 -19.5t34.5 -7.5q12 0 36 6t48.5 13t44.5 13t24 7z" />
    <glyph glyph-name="afii57414.fina" unicode="&#x626;" horiz-adv-x="1431" arabic-form="final" 
d="M1431 1h-60q-54 0 -161.5 15t-161.5 15q-45 0 -86 -12q-59 -18 -59 -53q0 -21 53 -28q46 -5 137 -16q114 -14 159 -36q58 -28 58 -90q0 -209 -224 -302q-158 -65 -402 -65q-507 0 -507 371q0 101 66 245q63 138 99 138q47 0 47 -42q0 -7 -28 -83t-28 -139
q0 -164 164 -219q101 -34 327 -34q77 0 203 22q152 26 152 61q0 17 -104 25q-140 10 -194 26q-105 30 -105 102q0 110 105 216q138 140 380 140h170v-257zM547 544q2 -9 2 -24q0 -11 -1 -26q-3 -36 -12 -47q-141 -36 -352 -129l-1 74q34 18 94 48q-26 12 -52 46t-26 61
q0 57 69 122.5t127 65.5q29 0 67 -23q42 -26 42 -52q0 -41 -31 -41q-13 0 -45.5 13.5t-54.5 13.5q-25 0 -52 -13q-32 -16 -32 -38q0 -35 35 -62t71 -27q29 0 79 16q66 21 73 22z" />
    <glyph glyph-name="afii57414.init" unicode="&#x626;" horiz-adv-x="370" arabic-form="initial" 
d="M367 392q0 -89 -20.5 -161t-58.5 -123t-93 -79t-125 -28h-140v257h155q144 0 144 54q0 48 -112 170q-7 6 -7 15t7 17l117 163q9 12 17 12q7 0 13 -7q21 -23 40 -57.5t33 -74t22 -81t8 -77.5zM399 1069q2 -5 2 -10v-13q0 -26 -4 -47t-9 -27q-140 -36 -352 -129l-1 74
q17 9 40.5 21t53.5 27q-12 6 -26 18t-25.5 27.5t-19 31.5t-7.5 30q0 28 20 61t50 61t64 47t62 19q15 0 34 -7t35.5 -18.5t28 -24.5t11.5 -25q0 -41 -31 -41q-6 0 -18.5 4t-27.5 9.5t-29.5 9.5t-24.5 4q-14 0 -29 -4t-27 -11t-20 -16.5t-8 -19.5q0 -18 10 -34t25.5 -28
t34 -19.5t36.5 -7.5q14 0 40 6t51.5 13.5t60.5 18.5z" />
    <glyph glyph-name="afii57414.medi" unicode="&#x626;" horiz-adv-x="715" arabic-form="medial" 
d="M715 1h-68q-77 0 -148.5 40.5t-110.5 106.5q-39 -66 -109 -106.5t-147 -40.5h-202v257h162q146 0 202 65q29 33 45 121q12 65 49 65q36 0 47 -65q15 -89 38 -121q45 -65 166 -65h76v-257zM478 916q3 -8 3 -23q0 -11 -2 -27q-4 -38 -12 -48q-141 -36 -352 -128v74
q33 18 94 48q-27 12 -53 45.5t-26 61.5q0 57 69 122t127 65q29 0 67 -23q42 -25 42 -52q0 -40 -31 -40q-13 0 -45.5 13t-54.5 13q-25 0 -52 -13q-32 -15 -32 -37q0 -35 35.5 -62.5t70.5 -27.5q26 0 79.5 17t72.5 22z" />
    <glyph glyph-name="afii57415.fina" unicode="&#x627;" horiz-adv-x="581" arabic-form="final" 
d="M581 1h-91q-59 0 -107 23t-82.5 66t-53.5 105.5t-19 140.5q0 123 -15 371q-17 280 -33 366q-1 5 -1.5 9.5t-0.5 8.5q0 14 6 20l165 134q30 24 35 24l1 -1q6 -2 6 -28l-2 -841q0 -142 159 -142h33v-256z" />
    <glyph glyph-name="afii57416.fina" unicode="&#x628;" horiz-adv-x="1693" arabic-form="final" 
d="M1693 1h-48q-91 0 -166 63q-61 51 -82 114q-143 -123 -341 -167q-129 -29 -335 -29q-544 0 -544 369q0 100 48 194q43 85 74 85q38 0 38 -42q0 -12 -12.5 -59.5t-12.5 -75.5q0 -137 154 -186q101 -32 308 -32q386 0 583 146q31 23 86 83q43 47 62 47q35 0 35 -49
q0 -22 -49 -127q31 -77 169 -77h33v-257zM980 -310l-135 -136l-136 136l136 136z" />
    <glyph glyph-name="afii57416.init" unicode="&#x628;" horiz-adv-x="370" arabic-form="initial" 
d="M367 392q0 -89 -20.5 -161t-58.5 -123t-93 -79t-125 -28h-140v257h155q144 0 144 54q0 48 -112 170q-7 6 -7 15t7 17l117 163q9 12 17 12q7 0 13 -7q21 -23 40 -57.5t33 -74t22 -81t8 -77.5zM329 -310l-136 -136l-136 136l136 136z" />
    <glyph glyph-name="afii57416.medi" unicode="&#x628;" horiz-adv-x="715" arabic-form="medial" 
d="M715 1h-68q-77 0 -148.5 40.5t-110.5 106.5q-39 -66 -109 -106.5t-147 -40.5h-202v257h162q146 0 202 65q29 33 45 121q12 65 49 65q36 0 47 -65q15 -89 38 -121q45 -65 166 -65h76v-257zM443 -315l-136 -136l-135 136l135 135z" />
    <glyph glyph-name="uni06470654.fina" unicode="&#x6c0;" horiz-adv-x="982" arabic-form="final" 
d="M982 9h-98q-161 0 -234 242l-84 -136q-389 0 -389 134q0 36 28 121q13 39 36 89q113 110 310 189q-10 33 -32 96l140 161q17 -39 91 -434q25 -136 69 -178q28 -27 94 -27h69v-257zM634 325q-19 67 -54 199q-212 -87 -244 -144q35 -55 298 -55zM679 1127q2 -9 2 -24
q0 -11 -1 -26q-3 -36 -12 -47q-141 -36 -352 -129l-1 74q34 18 94 48q-26 12 -52 46t-26 61q0 57 69 122.5t127 65.5q29 0 67 -23q42 -26 42 -52q0 -41 -31 -41q-13 0 -45.5 13.5t-54.5 13.5q-25 0 -52 -13q-32 -16 -32 -38q0 -35 35 -62t71 -27q29 0 79 16q66 21 73 22z
" />
    <glyph glyph-name="afii57418.fina" unicode="&#x62a;" horiz-adv-x="1693" arabic-form="final" 
d="M1693 1h-48q-91 0 -166 63q-61 51 -82 114q-143 -123 -341 -167q-129 -29 -335 -29q-544 0 -544 369q0 100 48 194q43 85 74 85q38 0 38 -42q0 -12 -12.5 -59.5t-12.5 -75.5q0 -137 154 -186q101 -32 308 -32q386 0 583 146q31 23 86 83q43 47 62 47q35 0 35 -49
q0 -22 -49 -127q31 -77 169 -77h33v-257zM1098 791l-123 -122l-122 122l122 122zM824 791l-122 -122l-122 122l122 122z" />
    <glyph glyph-name="afii57418.init" unicode="&#x62a;" horiz-adv-x="534" arabic-form="initial" 
d="M367 392q0 -148 -57 -251q-78 -140 -240 -140h-140v257h155q144 0 144 54q0 47 -112 170q-6 7 -6 15t6 17l117 163q9 12 17 12q7 0 13 -7q46 -48 75 -136q28 -82 28 -154zM541 976l-123 -122l-122 122l122 122zM268 976l-123 -122l-122 122l122 122z" />
    <glyph glyph-name="afii57418.medi" unicode="&#x62a;" horiz-adv-x="715" arabic-form="medial" 
d="M715 1h-68q-77 0 -148.5 40.5t-110.5 106.5q-39 -66 -109 -106.5t-147 -40.5h-202v257h162q146 0 202 65q29 33 45 121q12 65 49 65q36 0 47 -65q15 -89 38 -121q45 -65 166 -65h76v-257zM587 791l-123 -122l-122 122l122 122zM314 791l-123 -122l-122 122l122 122z" />
    <glyph glyph-name="afii57419.fina" unicode="&#x62b;" horiz-adv-x="1693" arabic-form="final" 
d="M1693 1h-48q-91 0 -166 63q-61 51 -82 114q-143 -123 -341 -167q-129 -29 -335 -29q-544 0 -544 369q0 100 48 194q43 85 74 85q38 0 38 -42q0 -12 -12.5 -59.5t-12.5 -75.5q0 -137 154 -186q101 -32 308 -32q386 0 583 146q31 23 86 83q43 47 62 47q35 0 35 -49
q0 -22 -49 -127q31 -77 169 -77h33v-257zM582 735l123 122l122 -122l-122 -123zM855 735l123 122l122 -122l-122 -123zM716 937l123 123l122 -123l-122 -122z" />
    <glyph glyph-name="afii57419.init" unicode="&#x62b;" horiz-adv-x="520" arabic-form="initial" 
d="M367 392q0 -148 -57 -251q-78 -140 -240 -140h-140v257h155q144 0 144 54q0 47 -112 170q-6 7 -6 15t6 17l117 163q9 12 17 12q7 0 13 -7q46 -48 75 -136q28 -82 28 -154zM1 937l122 123l123 -123l-123 -122zM274 937l122 123l123 -123l-123 -122zM135 1140l122 122
l123 -122l-123 -123z" />
    <glyph glyph-name="afii57419.medi" unicode="&#x62b;" horiz-adv-x="715" arabic-form="medial" 
d="M715 1h-68q-77 0 -148.5 40.5t-110.5 106.5q-39 -66 -109 -106.5t-147 -40.5h-202v257h162q146 0 202 65q29 33 45 121q12 65 49 65q36 0 47 -65q15 -89 38 -121q45 -65 166 -65h76v-257zM98 779l122 122l123 -122l-123 -123zM371 779l122 122l123 -122l-123 -123z
M232 981l122 123l123 -123l-123 -122z" />
    <glyph glyph-name="afii57420.fina" unicode="&#x62c;" horiz-adv-x="1374" arabic-form="final" 
d="M1374 1h-116q-171 0 -267 79q-104 86 -104 254q0 37 5 78q-159 -34 -288 -123q-195 -134 -195 -337q0 -344 491 -344q211 0 331 36q9 3 14 3q7 0 9 -5q1 -2 1 -4q0 -7 -9 -20q-110 -162 -446 -162q-258 0 -420 91q-203 115 -203 353q0 197 176 354q141 126 361 203
q-221 45 -275 45q-62 0 -121 -56.5t-64 -56.5q-45 0 -45 37q0 32 29 91q48 97 76 131q68 81 166 81q33 0 175 -24q190 -32 285 -42q77 -8 147 -8q75 0 144 9q11 1 17 1q12 0 12 -4q0 -5 -11 -29l-88 -196q-76 0 -166 -10q0 -116 102 -151q49 -17 171 -17h106v-257zM928 -72
l-136 -136l-136 136l136 135z" />
    <glyph glyph-name="afii57420.init" unicode="&#x62c;" horiz-adv-x="1120" arabic-form="initial" 
d="M1113 468l-129 -185q-129 0 -279 -73q-91 -47 -275 -136q-163 -73 -372 -73h-128v257h155q213 0 345 31q109 26 243 94q-53 20 -159 61q-127 48 -180 48q-59 0 -116.5 -50.5t-68.5 -50.5q-40 0 -40 45q0 30 29 82q110 195 246 195q65 0 309.5 -110.5t373.5 -110.5
q52 0 52 -10q-1 -7 -6 -14zM839 -266l-135 -136l-136 136l136 136z" />
    <glyph glyph-name="afii57420.medi" unicode="&#x62c;" horiz-adv-x="1234" arabic-form="medial" 
d="M1234 1h-173q-328 0 -328 308q-333 -308 -678 -308h-125v257h152q181 0 313 47q91 33 282 144q-233 81 -345 81q-59 0 -116.5 -59.5t-68.5 -59.5q-38 0 -38 35q0 38 17 72q116 234 268 234q68 0 284 -70.5t356 -70.5q79 0 79 -7q-1 -2 -7 -16l-85 -183q-111 0 -184 -30
q0 -77 89 -103q49 -14 154 -14h154v-257zM725 -266l-136 -136l-135 136l135 136z" />
    <glyph glyph-name="afii57421.fina" unicode="&#x62d;" horiz-adv-x="1374" arabic-form="final" 
d="M1374 1h-116q-171 0 -267 79q-104 86 -104 254q0 37 5 78q-159 -34 -288 -123q-195 -134 -195 -337q0 -344 491 -344q211 0 331 36q9 3 14 3q7 0 9 -5q1 -2 1 -4q0 -7 -9 -20q-110 -162 -446 -162q-258 0 -420 91q-203 115 -203 353q0 197 176 354q141 126 361 203
q-221 45 -275 45q-62 0 -121 -56.5t-64 -56.5q-45 0 -45 37q0 32 29 91q48 97 76 131q68 81 166 81q33 0 175 -24q190 -32 285 -42q77 -8 147 -8q75 0 144 9q11 1 17 1q12 0 12 -4q0 -5 -11 -29l-88 -196q-76 0 -166 -10q0 -116 102 -151q49 -17 171 -17h106v-257z" />
    <glyph glyph-name="afii57421.init" unicode="&#x62d;" horiz-adv-x="1120" arabic-form="initial" 
d="M1113 468l-129 -185q-129 0 -279 -73q-91 -47 -275 -136q-163 -73 -372 -73h-128v257h155q213 0 345 31q109 26 243 94q-53 20 -159 61q-127 48 -180 48q-59 0 -116.5 -50.5t-68.5 -50.5q-40 0 -40 45q0 30 29 82q110 195 246 195q65 0 309.5 -110.5t373.5 -110.5
q52 0 52 -10q-1 -7 -6 -14z" />
    <glyph glyph-name="afii57421.medi" unicode="&#x62d;" horiz-adv-x="1234" arabic-form="medial" 
d="M1234 1h-173q-328 0 -328 308q-333 -308 -678 -308h-125v257h152q181 0 313 47q91 33 282 144q-233 81 -345 81q-59 0 -116.5 -59.5t-68.5 -59.5q-38 0 -38 35q0 38 17 72q116 234 268 234q68 0 284 -70.5t356 -70.5q79 0 79 -7q-1 -2 -7 -16l-85 -183q-111 0 -184 -30
q0 -77 89 -103q49 -14 154 -14h154v-257z" />
    <glyph glyph-name="afii57422.fina" unicode="&#x62e;" horiz-adv-x="1374" arabic-form="final" 
d="M1374 1h-116q-171 0 -267 79q-104 86 -104 254q0 37 5 78q-159 -34 -288 -123q-195 -134 -195 -337q0 -344 491 -344q211 0 331 36q9 3 14 3q7 0 9 -5q1 -2 1 -4q0 -7 -9 -20q-110 -162 -446 -162q-258 0 -420 91q-203 115 -203 353q0 197 176 354q141 126 361 203
q-221 45 -275 45q-62 0 -121 -56.5t-64 -56.5q-45 0 -45 37q0 32 29 91q48 97 76 131q68 81 166 81q33 0 175 -24q190 -32 285 -42q77 -8 147 -8q75 0 144 9q11 1 17 1q12 0 12 -4q0 -5 -11 -29l-88 -196q-76 0 -166 -10q0 -116 102 -151q49 -17 171 -17h106v-257zM875 1051
l-136 -136l-136 136l136 136z" />
    <glyph glyph-name="afii57422.init" unicode="&#x62e;" horiz-adv-x="1120" arabic-form="initial" 
d="M1113 468l-129 -185q-129 0 -279 -73q-91 -47 -275 -136q-163 -73 -372 -73h-128v257h155q213 0 345 31q109 26 243 94q-53 20 -159 61q-127 48 -180 48q-59 0 -116.5 -50.5t-68.5 -50.5q-40 0 -40 45q0 30 29 82q110 195 246 195q65 0 309.5 -110.5t373.5 -110.5
q52 0 52 -10q-1 -7 -6 -14zM743 1051l-136 -136l-136 136l136 136z" />
    <glyph glyph-name="afii57422.medi" unicode="&#x62e;" horiz-adv-x="1234" arabic-form="medial" 
d="M1234 1h-173q-328 0 -328 308q-333 -308 -678 -308h-125v257h152q181 0 313 47q91 33 282 144q-233 81 -345 81q-59 0 -116.5 -59.5t-68.5 -59.5q-38 0 -38 35q0 38 17 72q116 234 268 234q68 0 284 -70.5t356 -70.5q79 0 79 -7q-1 -2 -7 -16l-85 -183q-111 0 -184 -30
q0 -77 89 -103q49 -14 154 -14h154v-257zM795 1051l-135 -136l-136 136l136 136z" />
    <glyph glyph-name="afii57423.fina" unicode="&#x62f;" horiz-adv-x="1141" arabic-form="final" 
d="M1141 1h-81q-143 0 -242 184q-83 -104 -135 -134q-86 -50 -252 -50q-251 0 -251 232q0 35 8 77q24 127 81 127q32 0 33 -50q2 -67 19 -92q34 -49 148 -49q278 0 278 106q0 67 -140 364l113 149q13 18 16 18q7 0 17 -27l174 -464q53 -137 143 -137h71v-254z" />
    <glyph glyph-name="afii57424.fina" unicode="&#x630;" horiz-adv-x="1141" arabic-form="final" 
d="M1141 1h-81q-143 0 -242 184q-83 -104 -135 -134q-86 -50 -252 -50q-251 0 -251 232q0 35 8 77q24 127 81 127q32 0 33 -50q2 -67 19 -92q34 -49 148 -49q278 0 278 106q0 67 -140 364l113 149q13 18 16 18q7 0 17 -27l174 -464q53 -137 143 -137h71v-254zM743 1139
l-136 -136l-136 136l136 136z" />
    <glyph glyph-name="afii57425.fina" unicode="&#x631;" horiz-adv-x="928" arabic-form="final" 
d="M928 1h-18q-96 0 -150 26q0 -304 -184 -482q-56 -54 -71 -54q-267 0 -399 51q-14 6 -14 10t12 9q180 67 351 195q190 142 190 246q0 20 -14.5 49t-39.5 63t-58 69t-70 67l105 212q4 9 10 9q4 0 12 -9q150 -204 277 -204h61v-257z" />
    <glyph glyph-name="afii57426.fina" unicode="&#x632;" horiz-adv-x="928" arabic-form="final" 
d="M928 1h-18q-96 0 -150 26q0 -304 -184 -482q-56 -54 -71 -54q-267 0 -399 51q-14 6 -14 10t12 9q180 67 351 195q190 142 190 246q0 20 -14.5 49t-39.5 63t-58 69t-70 67l105 212q4 9 10 9q4 0 12 -9q150 -204 277 -204h61v-257zM654 778l-135 -136l-136 136l136 135z
" />
    <glyph glyph-name="afii57427.fina" unicode="&#x633;" horiz-adv-x="2091" arabic-form="final" 
d="M2091 1h-94q-72 0 -120 37q-38 29 -79 100q-78 -137 -179 -137q-129 0 -174 128q-55 -127 -168 -127q-36 0 -77 14q7 -51 7 -98q0 -243 -183 -359q-152 -97 -410 -97q-231 0 -344 127q-91 102 -91 258q0 79 48 230q56 177 113 177q40 0 40 -56q0 -5 -30.5 -97t-30.5 -146
q0 -142 113 -199q82 -41 243 -41q158 0 287 49q148 56 148 146q0 56 -87 176q-74 102 -133 154l99 202q6 11 12 11q7 0 14 -11q128 -185 247 -185q68 0 96 60q1 2 30 112q16 60 55 60q34 0 46 -60q19 -96 27 -112q29 -60 103 -60q70 0 100 60q4 8 31 112q16 60 54 60
q33 0 45 -60q18 -87 33 -111q37 -60 133 -60h76v-257z" />
    <glyph glyph-name="afii57427.init" unicode="&#x633;" horiz-adv-x="1224" arabic-form="initial" 
d="M1221 383q0 -139 -56 -247q-70 -135 -202 -135q-124 0 -205 137q-77 -137 -196 -137q-128 0 -206 137q-80 -137 -243 -137h-183v257h208q89 0 127 60q15 23 36 111q15 60 49 60q37 0 51 -60q22 -94 32 -112q33 -60 120 -60q86 0 122 60q11 18 36 112q16 60 54 60
q33 0 46 -61q19 -94 31 -114q35 -61 125 -61q125 0 125 84q0 42 -85 149l91 141q17 27 20 28q6 -3 20 -21q25 -33 50 -96q33 -83 33 -155z" />
    <glyph glyph-name="afii57427.medi" unicode="&#x633;" horiz-adv-x="1458" arabic-form="medial" 
d="M1458 1h-87q-127 0 -207 137q-78 -137 -207 -137q-118 0 -199 137q-77 -137 -196 -137q-128 0 -206 137q-80 -137 -243 -137h-183v257h208q89 0 127 60q15 23 36 111q15 60 49 60q37 0 51 -60q22 -94 32 -112q33 -60 120 -60q86 0 122 60q11 18 36 112q16 60 54 60
q33 0 46 -60q19 -92 31 -112q35 -60 125 -60q77 0 111 60q7 13 36 112q17 60 56 60q33 0 45 -60q17 -86 33 -111q38 -60 133 -60h77v-257z" />
    <glyph glyph-name="afii57428.fina" unicode="&#x634;" horiz-adv-x="2091" arabic-form="final" 
d="M2091 1h-94q-72 0 -120 37q-38 29 -79 100q-78 -137 -179 -137q-129 0 -174 128q-55 -127 -168 -127q-36 0 -77 14q7 -51 7 -98q0 -243 -183 -359q-152 -97 -410 -97q-231 0 -344 127q-91 102 -91 258q0 79 48 230q56 177 113 177q40 0 40 -56q0 -5 -30.5 -97t-30.5 -146
q0 -142 113 -199q82 -41 243 -41q158 0 287 49q148 56 148 146q0 56 -87 176q-74 102 -133 154l99 202q6 11 12 11q7 0 14 -11q128 -185 247 -185q68 0 96 60q1 2 30 112q16 60 55 60q34 0 46 -60q19 -96 27 -112q29 -60 103 -60q70 0 100 60q4 8 31 112q16 60 54 60
q33 0 45 -60q18 -87 33 -111q37 -60 133 -60h76v-257zM1199 862l122 123l123 -123l-123 -122zM1472 862l122 123l123 -123l-123 -122zM1333 1065l122 122l123 -122l-123 -122z" />
    <glyph glyph-name="afii57428.init" unicode="&#x634;" horiz-adv-x="1224" arabic-form="initial" 
d="M1221 383q0 -139 -56 -247q-70 -135 -202 -135q-124 0 -205 137q-77 -137 -196 -137q-128 0 -206 137q-80 -137 -243 -137h-183v257h208q89 0 127 60q15 23 36 111q15 60 49 60q37 0 51 -60q22 -94 32 -112q33 -60 120 -60q86 0 122 60q11 18 36 112q16 60 54 60
q33 0 46 -61q19 -94 31 -114q35 -61 125 -61q125 0 125 84q0 42 -85 149l91 141q17 27 20 28q6 -3 20 -21q25 -33 50 -96q33 -83 33 -155zM485 862l123 123l122 -123l-122 -122zM758 862l123 123l122 -123l-122 -122zM619 1065l123 122l122 -122l-122 -122z" />
    <glyph glyph-name="afii57428.medi" unicode="&#x634;" horiz-adv-x="1458" arabic-form="medial" 
d="M1458 1h-87q-127 0 -207 137q-78 -137 -207 -137q-118 0 -199 137q-77 -137 -196 -137q-128 0 -206 137q-80 -137 -243 -137h-183v257h208q89 0 127 60q15 23 36 111q15 60 49 60q37 0 51 -60q22 -94 32 -112q33 -60 120 -60q86 0 122 60q11 18 36 112q16 60 54 60
q33 0 46 -60q19 -92 31 -112q35 -60 125 -60q77 0 111 60q7 13 36 112q17 60 56 60q33 0 45 -60q17 -86 33 -111q38 -60 133 -60h77v-257zM485 862l123 123l122 -123l-122 -122zM758 862l123 123l122 -123l-122 -122zM619 1065l123 122l122 -122l-122 -122z" />
    <glyph glyph-name="afii57429.fina" unicode="&#x635;" horiz-adv-x="2031" arabic-form="final" 
d="M2031 1h-98q-144 0 -192 116q-138 -116 -336 -116q-145 0 -241 36q13 -62 13 -121q0 -232 -171 -351q-149 -103 -392 -103q-231 0 -344 127q-91 102 -91 258q0 79 48 230q56 177 113 177q40 0 40 -56q0 -5 -30.5 -97t-30.5 -146q0 -142 113 -199q82 -41 243 -41
q158 0 273 52q135 61 135 167q0 55 -82 167q-69 94 -129 146l93 193q8 16 16 16t16 -14q60 -98 148 -164q308 401 527 401q102 0 172 -59q74 -62 74 -162q0 -103 -56 -200h169v-257zM1756 347q0 62 -66 97q-53 29 -121 29q-129 0 -320 -218q83 -6 155 -6q174 0 274 37
q78 29 78 61z" />
    <glyph glyph-name="afii57429.init" unicode="&#x635;" horiz-adv-x="1268" arabic-form="initial" 
d="M1261 458q0 -188 -141 -309q-170 -145 -504 -145q-120 0 -189 22q-94 30 -150 111q-83 -136 -229 -136h-118v257h82q121 0 169 61q25 31 42 112q13 61 44 61q36 0 51 -61q23 -92 35 -112q36 -61 119 -61q116 151 235 259q180 162 309 162q102 0 171 -59q74 -62 74 -162z
M1100 347q0 62 -66 97q-53 29 -121 29q-129 0 -320 -218q82 -6 155 -6q173 0 273 37q79 29 79 61z" />
    <glyph glyph-name="afii57429.medi" unicode="&#x635;" horiz-adv-x="1377" arabic-form="medial" 
d="M1377 1h-101q-139 0 -190 119q-90 -74 -223 -99q-88 -17 -247 -17q-120 0 -189 22q-94 30 -150 111q-83 -136 -229 -136h-118v257h82q121 0 169 61q25 31 42 112q13 61 44 61q36 0 51 -61q23 -92 35 -112q36 -61 119 -61q116 151 235 259q180 162 309 162q102 0 171 -59
q74 -62 74 -162q0 -103 -55 -200h171v-257zM1100 347q0 62 -66 97q-53 29 -121 29q-129 0 -320 -218q82 -6 155 -6q173 0 273 37q79 29 79 61z" />
    <glyph glyph-name="afii57430.fina" unicode="&#x636;" horiz-adv-x="2031" arabic-form="final" 
d="M2031 1h-98q-144 0 -192 116q-138 -116 -336 -116q-145 0 -241 36q13 -62 13 -121q0 -232 -171 -351q-149 -103 -392 -103q-231 0 -344 127q-91 102 -91 258q0 79 48 230q56 177 113 177q40 0 40 -56q0 -5 -30.5 -97t-30.5 -146q0 -142 113 -199q82 -41 243 -41
q158 0 273 52q135 61 135 167q0 55 -82 167q-69 94 -129 146l93 193q8 16 16 16t16 -14q60 -98 148 -164q308 401 527 401q102 0 172 -59q74 -62 74 -162q0 -103 -56 -200h169v-257zM1756 347q0 62 -66 97q-53 29 -121 29q-129 0 -320 -218q83 -6 155 -6q174 0 274 37
q78 29 78 61zM1625 979l-135 -136l-136 136l136 135z" />
    <glyph glyph-name="afii57430.init" unicode="&#x636;" horiz-adv-x="1268" arabic-form="initial" 
d="M1261 458q0 -188 -141 -309q-170 -145 -504 -145q-120 0 -189 22q-94 30 -150 111q-83 -136 -229 -136h-118v257h82q121 0 169 61q25 31 42 112q13 61 44 61q36 0 51 -61q23 -92 35 -112q36 -61 119 -61q116 151 235 259q180 162 309 162q102 0 171 -59q74 -62 74 -162z
M1100 347q0 62 -66 97q-53 29 -121 29q-129 0 -320 -218q82 -6 155 -6q173 0 273 37q79 29 79 61zM1061 979l-135 -136l-136 136l136 135z" />
    <glyph glyph-name="afii57430.medi" unicode="&#x636;" horiz-adv-x="1377" arabic-form="medial" 
d="M1377 1h-101q-139 0 -190 119q-90 -74 -223 -99q-88 -17 -247 -17q-120 0 -189 22q-94 30 -150 111q-83 -136 -229 -136h-118v257h82q121 0 169 61q25 31 42 112q13 61 44 61q36 0 51 -61q23 -92 35 -112q36 -61 119 -61q116 151 235 259q180 162 309 162q102 0 171 -59
q74 -62 74 -162q0 -103 -55 -200h171v-257zM1100 347q0 62 -66 97q-53 29 -121 29q-129 0 -320 -218q82 -6 155 -6q173 0 273 37q79 29 79 61zM1061 979l-135 -136l-136 136l136 135z" />
    <glyph glyph-name="afii57431.fina" unicode="&#x637;" horiz-adv-x="1442" arabic-form="final" 
d="M1442 1h-73q-137 0 -206 116q-128 -82 -307 -105q-84 -11 -276 -11q-318 0 -406 266q107 -10 249 -10q44 0 91 1v76q0 396 -91 763l187 171q26 -77 103 -278q6 -12 6 -17q0 -6 -9 -6t-70 16q13 -144 13 -254q0 -152 -29 -356q86 96 204 183q171 126 285 126q74 0 140 -49
q84 -62 84 -173q0 -97 -59 -202h164v-257zM1181 351q0 49 -59 90q-54 37 -105 37q-166 0 -367 -220h184q102 0 196 15q151 24 151 78z" />
    <glyph glyph-name="afii57431.init" unicode="&#x637;" horiz-adv-x="1017" arabic-form="initial" 
d="M1011 460q0 -239 -212 -361q-172 -98 -431 -98h-438v257h259v76q0 396 -92 763l187 171q27 -78 104 -274q6 -15 6 -19q0 -6 -10 -6q-11 0 -70 14q13 -144 13 -254q0 -152 -29 -356q84 94 205 183q171 126 284 126q74 0 140 -49q84 -62 84 -173zM855 351q0 50 -58 90
q-54 37 -106 37q-166 0 -367 -220h184q102 0 196 15q151 24 151 78z" />
    <glyph glyph-name="afii57431.medi" unicode="&#x637;" horiz-adv-x="1117" arabic-form="medial" 
d="M1117 1h-74q-141 0 -208 113q-95 -74 -251 -98q-98 -15 -286 -15h-368v257h259v76q0 396 -92 763l187 171q27 -78 104 -275q6 -15 6 -21t-8 -6l-72 17q13 -144 13 -254q0 -152 -29 -356q84 94 205 183q171 126 284 126q74 0 140 -49q84 -62 84 -173q0 -97 -59 -202h165
v-257zM855 351q0 50 -58 90q-54 37 -106 37q-166 0 -367 -220h184q102 0 196 15q151 24 151 78z" />
    <glyph glyph-name="afii57432.fina" unicode="&#x638;" horiz-adv-x="1442" arabic-form="final" 
d="M1442 1h-73q-137 0 -206 116q-128 -82 -307 -105q-84 -11 -276 -11q-318 0 -406 266q107 -10 249 -10q44 0 91 1v76q0 396 -91 763l187 171q26 -77 103 -278q6 -12 6 -17q0 -6 -9 -6t-70 16q13 -144 13 -254q0 -152 -29 -356q86 96 204 183q171 126 285 126q74 0 140 -49
q84 -62 84 -173q0 -97 -59 -202h164v-257zM1181 351q0 49 -59 90q-54 37 -105 37q-166 0 -367 -220h184q102 0 196 15q151 24 151 78zM1183 989l-136 -135l-135 135l135 136z" />
    <glyph glyph-name="afii57432.init" unicode="&#x638;" horiz-adv-x="1017" arabic-form="initial" 
d="M1011 460q0 -239 -212 -361q-172 -98 -431 -98h-438v257h259v76q0 396 -92 763l187 171q27 -78 104 -274q6 -15 6 -19q0 -6 -10 -6q-11 0 -70 14q13 -144 13 -254q0 -152 -29 -356q84 94 205 183q171 126 284 126q74 0 140 -49q84 -62 84 -173zM855 351q0 50 -58 90
q-54 37 -106 37q-166 0 -367 -220h184q102 0 196 15q151 24 151 78zM884 989l-136 -135l-136 135l136 136z" />
    <glyph glyph-name="afii57432.medi" unicode="&#x638;" horiz-adv-x="1117" arabic-form="medial" 
d="M1117 1h-74q-141 0 -208 113q-95 -74 -251 -98q-98 -15 -286 -15h-368v257h259v76q0 396 -92 763l187 171q27 -78 104 -275q6 -15 6 -21t-8 -6l-72 17q13 -144 13 -254q0 -152 -29 -356q84 94 205 183q171 126 284 126q74 0 140 -49q84 -62 84 -173q0 -97 -59 -202h165
v-257zM855 351q0 50 -58 90q-54 37 -106 37q-166 0 -367 -220h184q102 0 196 15q151 24 151 78zM884 989l-136 -135l-136 135l136 136z" />
    <glyph glyph-name="afii57433.fina" unicode="&#x639;" horiz-adv-x="1225" arabic-form="final" 
d="M1225 1h-30q-261 0 -489 279q-303 -164 -303 -372q0 -158 153 -235q119 -60 293 -60q158 0 305 35q22 5 28 5h2q-1 -5 -9 -19q-99 -176 -465 -176q-217 0 -360 86q-173 104 -173 307q0 282 452 505q-29 37 -77 82q-62 59 -89 59q-28 0 -28 32q0 42 49 96q81 89 246 89
q102 0 182 -41q94 -48 94 -126q0 -94 -174 -196q107 -93 337 -93h56v-257z" />
    <glyph glyph-name="afii57433.init" unicode="&#x639;" horiz-adv-x="906" arabic-form="initial" 
d="M898 298l-113 -208q-125 -8 -243 -21.5t-232 -33.5q-99 -17 -157.5 -25.5t-77.5 -8.5h-145v257h291q-14 11 -27.5 31t-24 43t-17 46.5t-6.5 41.5q0 112 127 245q135 142 272 142q37 0 74.5 -14.5t72.5 -39.5t64.5 -59.5t50.5 -74.5q18 -35 18 -50q0 -12 -13 -12t-40 10
q-107 37 -228 37q-45 0 -89 -8.5t-78 -23.5t-55 -36t-21 -46q0 -44 62 -106q79 -81 197 -81q103 0 182 3.5t134 10.5q5 1 9 1h7q12 0 12 -4q0 -6 -6 -16z" />
    <glyph glyph-name="afii57433.medi" unicode="&#x639;" horiz-adv-x="766" arabic-form="medial" 
d="M766 1h-29q-143 0 -232 55q-50 31 -119 116q-153 -171 -354 -171h-102v257h144q141 0 211 54q-120 157 -165 157q-28 0 -28 32q0 44 48 97q80 89 247 89q102 0 182 -41q93 -48 93 -126q0 -56 -67 -123q-20 -20 -107 -90q57 -49 223 -49h55v-257z" />
    <glyph glyph-name="afii57434.fina" unicode="&#x63a;" horiz-adv-x="1225" arabic-form="final" 
d="M1225 1h-30q-261 0 -489 279q-303 -164 -303 -372q0 -158 153 -235q119 -60 293 -60q158 0 305 35q22 5 28 5h2q-1 -5 -9 -19q-99 -176 -465 -176q-217 0 -360 86q-173 104 -173 307q0 282 452 505q-29 37 -77 82q-62 59 -89 59q-28 0 -28 32q0 42 49 96q81 89 246 89
q102 0 182 -41q94 -48 94 -126q0 -94 -174 -196q107 -93 337 -93h56v-257zM910 989l-136 -135l-135 135l135 136z" />
    <glyph glyph-name="afii57434.init" unicode="&#x63a;" horiz-adv-x="906" arabic-form="initial" 
d="M898 298l-113 -208q-125 -8 -243 -21.5t-232 -33.5q-99 -17 -157.5 -25.5t-77.5 -8.5h-145v257h291q-14 11 -27.5 31t-24 43t-17 46.5t-6.5 41.5q0 112 127 245q135 142 272 142q37 0 74.5 -14.5t72.5 -39.5t64.5 -59.5t50.5 -74.5q18 -35 18 -50q0 -12 -13 -12t-40 10
q-107 37 -228 37q-45 0 -89 -8.5t-78 -23.5t-55 -36t-21 -46q0 -44 62 -106q79 -81 197 -81q103 0 182 3.5t134 10.5q5 1 9 1h7q12 0 12 -4q0 -6 -6 -16zM654 1121l-135 -135l-136 135l136 136z" />
    <glyph glyph-name="afii57434.medi" unicode="&#x63a;" horiz-adv-x="766" arabic-form="medial" 
d="M766 1h-29q-143 0 -232 55q-50 31 -119 116q-153 -171 -354 -171h-102v257h144q141 0 211 54q-120 157 -165 157q-28 0 -28 32q0 44 48 97q80 89 247 89q102 0 182 -41q93 -48 93 -126q0 -56 -67 -123q-20 -20 -107 -90q57 -49 223 -49h55v-257zM522 989l-135 -135
l-136 135l136 136z" />
    <glyph glyph-name="afii57441.fina" unicode="&#x641;" horiz-adv-x="1682" arabic-form="final" 
d="M1682 1h-48q-215 0 -371 117q-213 -140 -564 -140q-522 0 -522 373q0 99 52 194q47 85 78 85q38 0 38 -42q0 -10 -15.5 -57t-15.5 -76q0 -155 172 -202q73 -20 250 -20q275 0 353 40q-65 90 -65 155q0 99 78 216q90 136 203 136q97 0 154 -95q49 -81 49 -190
q0 -144 -74 -222q20 -15 151 -15h97v-257zM1402 441q0 40 -42 82.5t-82 42.5q-46 0 -94 -35q-51 -38 -51 -82q0 -32 50.5 -78.5t83.5 -46.5q28 0 77 33q58 39 58 84zM1407 1095l-136 -136l-136 136l136 136z" />
    <glyph glyph-name="afii57441.init" unicode="&#x641;" horiz-adv-x="636" arabic-form="initial" 
d="M635 418q0 -254 -131 -342q-112 -75 -349 -75h-225v257h251q238 0 319 41q36 18 36 62q0 24 -30 24q-5 0 -10 -1q-129 -12 -179 -12q-199 0 -199 147q0 121 61 240q74 144 188 144q156 0 225 -204q43 -127 43 -281zM484 568q-28 68 -86 105q-43 27 -78 27
q-31 0 -57 -21.5t-26 -52.5q0 -70 136 -70q50 0 111 12zM492 1151l-135 -135l-136 135l136 136z" />
    <glyph glyph-name="afii57441.medi" unicode="&#x641;" horiz-adv-x="785" arabic-form="medial" 
d="M785 1h-41q-99 0 -211 43q-88 34 -142 74q-200 -117 -347 -117h-114v257h154q94 0 133 15q-65 90 -65 155q0 99 78 216q90 136 203 136q97 0 154 -95q49 -81 49 -190q0 -144 -74 -222q20 -15 151 -15h72v-257zM530 441q0 40 -42 82.5t-82 42.5q-46 0 -94 -35
q-51 -38 -51 -82q0 -32 50.5 -78.5t83.5 -46.5q28 0 77 33q58 39 58 84zM528 1090l-136 -136l-136 136l136 135z" />
    <glyph glyph-name="afii57442.fina" unicode="&#x642;" horiz-adv-x="1467" arabic-form="final" 
d="M1467 1h-214q2 -29 2 -56q0 -451 -641 -451q-231 0 -344 127q-91 102 -91 257q0 79 48 230q56 177 113 177q40 0 40 -55q0 -6 -30.5 -98t-30.5 -145q0 -142 113 -199q81 -41 243 -42h7q145 0 282 38q190 53 190 161q0 27 -12 57q-27 0 -80 -1.5t-80 -1.5q-129 0 -188 28
q-80 38 -80 138q0 129 61 261q75 163 188 163q125 0 207 -136q59 -98 68 -195h229v-257zM1087 243q-27 67 -85 104q-44 28 -79 28q-31 0 -57 -21.5t-26 -52.5q0 -70 136 -70q51 0 111 12zM1198 870l-122 -122l-123 122l123 123zM925 870l-123 -122l-122 122l122 123z" />
    <glyph glyph-name="afii57442.init" unicode="&#x642;" horiz-adv-x="636" arabic-form="initial" 
d="M635 418q0 -254 -131 -342q-112 -75 -349 -75h-225v257h251q238 0 319 41q36 18 36 62q0 24 -30 24q-5 0 -10 -1q-129 -12 -179 -12q-199 0 -199 147q0 121 61 240q74 144 188 144q156 0 225 -204q43 -127 43 -281zM484 568q-28 68 -86 105q-43 27 -78 27
q-31 0 -57 -21.5t-26 -52.5q0 -70 136 -70q50 0 111 12zM604 1150l-122 -122l-123 122l123 123zM331 1150l-122 -122l-123 122l123 123z" />
    <glyph glyph-name="afii57442.medi" unicode="&#x642;" horiz-adv-x="785" arabic-form="medial" 
d="M785 1h-41q-99 0 -211 43q-88 34 -142 74q-200 -117 -347 -117h-114v257h154q94 0 133 15q-65 90 -65 155q0 99 78 216q90 136 203 136q97 0 154 -95q49 -81 49 -190q0 -144 -74 -222q20 -15 151 -15h72v-257zM530 441q0 40 -42 82.5t-82 42.5q-46 0 -94 -35
q-51 -38 -51 -82q0 -32 50.5 -78.5t83.5 -46.5q28 0 77 33q58 39 58 84zM657 1038l-122 -123l-123 123l123 122zM384 1038l-122 -123l-123 123l123 122z" />
    <glyph glyph-name="afii57443.fina" unicode="&#x643;" horiz-adv-x="1609" arabic-form="final" 
d="M1609 1h-133q-33 0 -64.5 10t-58.5 27t-47.5 40t-30.5 49q-12 -22 -30.5 -42.5t-41 -37t-48 -28.5t-50.5 -16q-7 -2 -15 -3.5t-17 -3.5q-118 -7 -214 -10.5t-174 -3.5q-128 0 -223.5 20.5t-158.5 65t-94.5 114.5t-31.5 169q0 43 13.5 92.5t33.5 90.5t42.5 68.5t40.5 27.5
q38 0 38 -42q0 -3 -5 -19.5t-10.5 -38t-10.5 -42.5t-5 -33q0 -62 20.5 -104.5t64 -68t112.5 -36.5t167 -11q132 0 236.5 4t188.5 12q118 19 118 134q0 261 -11 434t-33 263l196 182q8 7 11 7q5 0 5 -11v-861q0 -141 141 -141h79v-257zM948 746q3 -9 3 -24q0 -26 -5 -47.5
t-9 -26.5q-72 -18 -159 -50t-193 -78v74q17 9 40 21t54 27q-14 6 -28 18.5t-25.5 27.5t-18.5 31t-7 30q0 28 20 61t50 61t64 46.5t62 18.5q15 0 34 -7t35.5 -18t28 -24.5t11.5 -25.5q0 -40 -31 -40q-5 0 -17.5 4t-27.5 9t-30 9t-25 4q-14 0 -28.5 -4t-27 -11t-20.5 -16
t-8 -19q0 -18 10 -34.5t26 -28.5t34.5 -19.5t35.5 -7.5q11 0 33.5 5.5t46.5 12t44.5 13t27.5 8.5z" />
    <glyph glyph-name="afii57444.fina" unicode="&#x644;" horiz-adv-x="1342" arabic-form="final" 
d="M1342 1h-40q-116 0 -167 73q0 -232 -77 -357q-127 -205 -471 -205q-412 0 -412 369q0 86 43 203q45 126 85 126q37 0 37 -48q0 -8 -6 -31.5t-12.5 -51.5t-12.5 -54.5t-6 -39.5q0 -218 312 -218q206 0 315 67q74 47 74 86q0 153 -6 327.5t-19 373.5q-23 360 -42 466
l190 165q2 2 5.5 4.5t7.5 2.5q6 0 6 -13l9 -803q2 -185 157 -185h30v-257z" />
    <glyph glyph-name="afii57444.init" unicode="&#x644;" horiz-adv-x="359" arabic-form="initial" 
d="M352 988q2 -4 3 -8t3 -9q-1 -4 -12 -4q-8 0 -23 2t-36 6q8 -150 12.5 -297t4.5 -295q0 -49 -1.5 -89.5t-8.5 -76t-20 -66t-35 -59.5q-70 -91 -191 -91h-118v257h111q32 0 54.5 4.5t37 15.5t21 29t6.5 46q0 67 -11.5 166.5t-28.5 230.5q-33 261 -54 343l167 165q6 6 11 6
q6 0 11 -11q13 -42 37.5 -107.5t59.5 -157.5z" />
    <glyph glyph-name="afii57444.medi" unicode="&#x644;" horiz-adv-x="616" arabic-form="medial" 
d="M616 1h-133q-33 0 -64.5 10t-58.5 27t-47.5 40t-30.5 49q-14 -26 -36.5 -49t-49 -40t-55.5 -27t-56 -10h-155v257h153q145 0 145 137q0 509 -44 687l196 182q9 7 11 7q5 0 5 -11v-861q0 -141 141 -141h79v-257z" />
    <glyph glyph-name="afii57445.fina" unicode="&#x645;" horiz-adv-x="1154" arabic-form="final" 
d="M1154 1h-55q-96 0 -138 39q0 -303 -174 -303q-110 0 -183 97q-88 116 -88 331h-79q-56 0 -78 -11q-33 -16 -33 -67q0 -6 2 -26q20 -206 20 -329q0 -58 -4 -97q-3 -23 -40 -85q-16 -26 -49 -79q-13 -22 -20 -22q-9 0 -11 37q-9 165 -29 373l-18 203q0 194 140 277
q90 53 219 53l45 135q231 -179 259 -196q119 -73 256 -73h58v-257zM860 26q0 39 -99 123l-136 106v-36q0 -98 35 -168q44 -90 133 -90q67 0 67 65z" />
    <glyph glyph-name="afii57445.init" unicode="&#x645;" horiz-adv-x="706" arabic-form="initial" 
d="M705 211q0 -103 -63 -167.5t-165 -64.5q-137 0 -229 145q-64 -123 -188 -123h-130v257h130q86 0 108 15q15 10 15 40q0 7 -1 15q-1 10 -1 21q0 88 62 168q75 96 188 96q140 0 214 -136q60 -111 60 -266zM583 268q0 60 -42 136q-48 86 -102 86q-68 0 -68 -91
q0 -68 36 -144q44 -91 104 -91q72 0 72 104z" />
    <glyph glyph-name="afii57445.medi" unicode="&#x645;" horiz-adv-x="909" arabic-form="medial" 
d="M909 1h-68q-55 0 -102.5 39t-68.5 93q-58 -154 -202 -154q-128 0 -220 145q-64 -123 -188 -123h-130v257h130q86 0 108 15q15 10 15 40q0 7 -1 15q-1 11 -1 21q0 88 61 169q74 98 186 98q150 0 225 -167l63 -141q33 -51 101 -51h92v-256zM583 268q0 60 -42 136
q-48 86 -102 86q-68 0 -68 -91q0 -68 36 -144q44 -91 104 -91q72 0 72 104z" />
    <glyph glyph-name="afii57446.fina" unicode="&#x646;" horiz-adv-x="1379" arabic-form="final" 
d="M1379 1h-68q-70 0 -111 24q7 -51 7 -98q0 -245 -181 -364q-153 -101 -412 -101q-231 0 -344 127q-91 102 -91 258q0 79 48 230q56 177 113 177q40 0 40 -56q0 -5 -30.5 -97t-30.5 -146q0 -142 113 -199q82 -41 243 -41q158 0 287 49q148 56 148 146q0 56 -87 176
q-74 102 -133 154l99 202q6 11 12 11q7 0 14 -11q65 -94 103 -128q63 -56 144 -56h117v-257zM804 593l-135 -136l-136 136l136 135z" />
    <glyph glyph-name="afii57446.init" unicode="&#x646;" horiz-adv-x="370" arabic-form="initial" 
d="M367 392q0 -148 -57 -251q-78 -140 -240 -140h-140v257h155q144 0 144 54q0 47 -112 170q-6 7 -6 15t6 17l117 163q9 12 17 12q7 0 13 -7q46 -48 75 -136q28 -82 28 -154zM360 984l-135 -136l-136 136l136 136z" />
    <glyph glyph-name="afii57446.medi" unicode="&#x646;" horiz-adv-x="715" arabic-form="medial" 
d="M715 1h-68q-77 0 -148.5 40.5t-110.5 106.5q-39 -66 -109 -106.5t-147 -40.5h-202v257h162q146 0 202 65q29 33 45 121q12 65 49 65q36 0 47 -65q15 -89 38 -121q45 -65 166 -65h76v-257zM433 894l-136 -136l-136 136l136 136z" />
    <glyph glyph-name="afii57470.isol" unicode="&#x647;" horiz-adv-x="761" arabic-form="isolated" 
d="M760 314q0 -144 -82.5 -230.5t-226.5 -86.5q-156 0 -226 88q-48 61 -48 147q0 113 89 275q83 151 156 202q150 -58 225 -126q113 -103 113 -269zM647 316q-98 116 -274 173q-67 -74 -67 -167q0 -45 58 -72q52 -24 121 -24q103 0 156 38q17 12 17 27q0 12 -11 25z" />
    <glyph glyph-name="afii57470.fina" unicode="&#x647;" horiz-adv-x="982" arabic-form="final" 
d="M982 1h-98q-161 0 -234 242l-84 -136q-389 0 -389 134q0 36 28 121q13 39 36 89q113 110 310 189q-10 33 -32 96l140 161q17 -39 91 -434q25 -136 69 -178q28 -27 94 -27h69v-257zM634 317q-19 67 -54 199q-212 -87 -244 -144q35 -55 298 -55z" />
    <glyph glyph-name="afii57470.init" unicode="&#x647;" horiz-adv-x="893" arabic-form="initial" 
d="M678 42q-41 0 -152 51q-63 29 -92 42q-8 -16 -128 -62q-187 -72 -246 -72h-130v257h125q86 0 110 21q-50 42 -50 117q0 79 58 151q52 65 130 100q-41 34 -90 51l97 204q258 -135 381 -233q200 -159 200 -315q0 -116 -76 -218q-70 -94 -137 -94zM777 299q0 45 -77 105
q-10 8 -97 70q4 -22 4 -40q0 -79 -68 -141q93 -62 180 -62q58 0 58 68zM504 462q0 33 -27 70q-30 39 -61 39q-39 0 -93 -39q-57 -40 -57 -77q0 -36 56 -72q49 -32 78 -32q26 0 61 28q43 35 43 83z" />
    <glyph glyph-name="afii57470.medi" unicode="&#x647;" horiz-adv-x="934" arabic-form="medial" 
d="M934 1h-64q-107 0 -144 -9q-71 -17 -71 -74q0 -88 169 -158l-86 -236q-245 71 -389 214q-84 83 -119 167q-2 6 -40 111q-93 -15 -160 -15h-100v257h236q0 264 215 561q76 -90 135 -213q71 -147 71 -255q0 -280 -252 -319q60 -112 209 -191q-1 13 -1 26q0 141 80 255
q95 136 246 136h65v-257zM469 289q0 48 -45 131q-36 66 -66 101q-78 -111 -78 -256q66 0 189 24z" />
    <glyph glyph-name="afii57448.fina" unicode="&#x648;" horiz-adv-x="920" arabic-form="final" 
d="M920 1h-147q0 -252 -172 -448q-55 -62 -70 -62q-251 0 -399 51q-15 4 -15 10q0 4 13 9q174 63 347 200q185 146 185 244h-25q-20 0 -41.5 -0.5t-40.5 -0.5h-26q-138 0 -196 30q-83 42 -83 158q0 106 67 241q81 165 192 165q49 0 92.5 -25t78 -70t58.5 -107.5t35 -137.5
h147v-257zM625 255q-11 28 -30 52.5t-41.5 42.5t-46.5 28t-45 10q-15 0 -30 -6t-27 -16t-19 -23.5t-7 -28.5q0 -70 112 -70q26 0 59 3t75 8z" />
    <glyph glyph-name="afii57450.fina" unicode="&#x64a;" horiz-adv-x="1431" arabic-form="final" 
d="M1431 1h-60q-54 0 -161.5 15t-161.5 15q-45 0 -86 -12q-59 -18 -59 -53q0 -21 53 -28q46 -5 137 -16q114 -14 159 -36q58 -28 58 -90q0 -209 -224 -302q-158 -65 -402 -65q-507 0 -507 371q0 101 66 245q63 138 99 138q47 0 47 -42q0 -7 -28 -83t-28 -139
q0 -164 164 -219q101 -34 327 -34q77 0 203 22q152 26 152 61q0 17 -104 25q-140 10 -194 26q-105 30 -105 102q0 110 105 216q138 140 380 140h170v-257zM932 -837l-123 -123l-122 123l122 122zM659 -837l-123 -123l-122 123l122 122z" />
    <glyph glyph-name="uni06CC.init" unicode="&#x6cc;" horiz-adv-x="534" arabic-form="initial" 
d="M367 392q0 -89 -20.5 -161t-58.5 -123t-93 -79t-125 -28h-140v257h155q144 0 144 54q0 48 -112 170q-7 6 -7 15t7 17l117 163q9 12 17 12q7 0 13 -7q21 -23 40 -57.5t33 -74t22 -81t8 -77.5zM546 -299l-122 -123l-123 123l123 122zM273 -299l-122 -123l-123 123l123 122z
" />
    <glyph glyph-name="uni06CC.medi" unicode="&#x6cc;" horiz-adv-x="715" arabic-form="medial" 
d="M715 1h-68q-77 0 -148.5 40.5t-110.5 106.5q-39 -66 -109 -106.5t-147 -40.5h-202v257h162q146 0 202 65q29 33 45 121q12 65 49 65q36 0 47 -65q15 -89 38 -121q45 -65 166 -65h76v-257zM590 -299l-122 -123l-123 123l123 122zM317 -299l-122 -123l-123 123l123 122z
" />
    <glyph glyph-name="afii57417.isol" unicode="&#x629;" horiz-adv-x="761" arabic-form="isolated" 
d="M760 314q0 -144 -82.5 -230.5t-226.5 -86.5q-157 0 -227 88q-47 59 -47 147q0 113 89 275q83 151 156 202q150 -58 225 -126q113 -103 113 -269zM647 316q-98 116 -274 173q-67 -74 -67 -167q0 -45 58 -72q52 -24 121 -24q103 0 156 38q17 12 17 27q0 12 -11 25z
M698 1031l-123 -122l-122 122l122 122zM424 1031l-122 -122l-122 122l122 122z" />
    <glyph glyph-name="afii57449.isol" unicode="&#x649;" horiz-adv-x="1381" arabic-form="isolated" 
d="M1374 488q2 -14 3.5 -24t1.5 -17q0 -16 -7 -16q-6 0 -28 11q-52 28 -166 28q-125 0 -217 -86q-71 -68 -71 -109q0 -48 76 -70q35 -11 156 -28q60 -8 98.5 -22t61.5 -38t32 -59t9 -84q0 -233 -170 -354.5t-497 -121.5q-477 0 -477 393q0 78 48 230q55 177 113 177
q40 0 40 -56q0 -2 -8 -26.5t-23 -70.5q-16 -46 -23 -82.5t-7 -63.5q0 -253 380 -253q164 0 310 33q198 45 198 126q0 44 -116 58q-168 19 -216 38q-117 45 -117 165q0 134 118 315q132 203 281 203q97 0 163 -84q44 -56 54 -112z" />
    <glyph glyph-name="afii57450.isol" unicode="&#x64a;" horiz-adv-x="1381" arabic-form="isolated" 
d="M1374 488q2 -14 3.5 -24t1.5 -17q0 -16 -7 -16q-6 0 -28 11q-52 28 -166 28q-125 0 -217 -86q-71 -68 -71 -109q0 -48 76 -70q35 -11 156 -28q60 -8 98.5 -22t61.5 -38t32 -59t9 -84q0 -233 -170 -354.5t-497 -121.5q-477 0 -477 393q0 78 48 230q55 177 113 177
q40 0 40 -56q0 -2 -8 -26.5t-23 -70.5q-16 -46 -23 -82.5t-7 -63.5q0 -253 380 -253q164 0 310 33q198 45 198 126q0 44 -116 58q-168 19 -216 38q-117 45 -117 165q0 134 118 315q132 203 281 203q97 0 163 -84q44 -56 54 -112zM904 -768l-123 -123l-122 123l122 122z
M631 -768l-123 -123l-122 123l122 122z" />
    <glyph glyph-name="afii57449.init" unicode="&#x649;" horiz-adv-x="370" arabic-form="initial" 
d="M367 392q0 -89 -20.5 -161t-58.5 -123t-93 -79t-125 -28h-140v257h155q144 0 144 54q0 48 -112 170q-7 6 -7 15t7 17l117 163q9 12 17 12q7 0 13 -7q21 -23 40 -57.5t33 -74t22 -81t8 -77.5z" />
    <glyph glyph-name="afii57449.medi" unicode="&#x649;" horiz-adv-x="715" arabic-form="medial" 
d="M715 1h-68q-77 0 -148.5 40.5t-110.5 106.5q-39 -66 -109 -106.5t-147 -40.5h-202v257h162q146 0 202 65q29 33 45 121q12 65 49 65q36 0 47 -65q15 -89 38 -121q45 -65 166 -65h76v-257z" />
    <glyph glyph-name="uniFDFC" unicode="&#xfdfc;" horiz-adv-x="1686" arabic-form="isolated" 
d="M1342 143l-102 -103l-80 80l-78 -81l-103 104l102 102l78 -80l81 80zM1622 316q0 -149 -94 -280q-83 -115 -145 -115q-114 0 -193 12q-44 7 -44 32q0 26 44 34q54 11 109 40.5t111 74.5q116 98 116 185q0 57 -105 159l49 102q11 21 24 28q9 -3 16 -9t14 -14
q19 -23 35.5 -52.5t30.5 -64.5h-1q33 -78 33 -132zM1389 479q0 -212 -211 -212l-113 1h-6q-51 0 -88.5 16.5t-61.5 51.5t-35.5 90.5t-11.5 133.5l1 145q0 66 -6 152t-19 193l67 70q13 12 28 12q11 0 20.5 -23t13.5 -61q1 -5 1 -11t1 -11q1 -8 1.5 -15t1.5 -14q1 -13 2.5 -37
t2 -52.5t1 -59t0.5 -57.5v-272q0 -102 97 -102l89 -1q126 0 126 34q0 30 -68 118l42 105v-1q10 27 29 27q13 0 31 -25q65 -95 65 -195zM830 988q0 -1 1 -2q0 -1 2 -3q3 -9 3 -17q0 -14 -7.5 -19t-31.5 -5h-12q11 -206 16 -358t5 -265q0 -80 -3 -137q-11 -177 -116 -269.5
t-304 -92.5q-142 0 -222.5 65t-80.5 187q0 128 71 226l-1 -1q12 20 33 20q32 0 32 -34q0 -11 -7 -22l2 3q-30 -78 -30 -127q0 -39 14.5 -70t41.5 -52.5t64 -33t82 -11.5q136 0 234 50q37 21 58 41t21 36q0 318 -11 554.5t-33 399.5l76 70q6 5 12 9.5t19 9.5
q12 -9 18.5 -22.5t13.5 -30.5q7 -20 16 -44.5t23 -51.5z" />
    <glyph glyph-name="afii57417.fina" unicode="&#x629;" horiz-adv-x="982" arabic-form="final" 
d="M982 1h-98q-161 0 -234 242l-84 -136q-389 0 -389 134q0 36 28 121q13 39 36 89q113 110 310 189q-10 33 -32 96l140 161q17 -39 91 -434q25 -136 69 -178q28 -27 94 -27h69v-257zM634 317q-19 67 -54 199q-212 -87 -244 -144q35 -55 298 -55zM748 1092l-123 -122
l-122 122l122 122zM474 1092l-122 -122l-122 122l122 122z" />
    <glyph glyph-name=".notdef" horiz-adv-x="1024" 
d="M128 0v1621h768v-1621h-768zM256 128h512v1365h-512v-1365z" />
    <glyph glyph-name="NULL" horiz-adv-x="0" 
 />
    <glyph glyph-name="nonmarkingreturn" horiz-adv-x="440" 
 />
    <glyph glyph-name="space" unicode=" " horiz-adv-x="440" 
 />
    <glyph glyph-name="space" unicode="&#xa0;" horiz-adv-x="440" 
 />
    <glyph glyph-name="exclam" unicode="!" horiz-adv-x="399" 
d="M317 974q0 -70 -23 -216q-27 -169 -32 -251l-15 -230h-62q-2 25 -17 228q-6 83 -34 256q-24 150 -24 215q0 241 103 241q104 0 104 -243zM319 102q0 -43 -29.5 -72t-72.5 -29t-71.5 29t-28.5 72q0 42 29 71t71 29q41 0 71.5 -29.5t30.5 -70.5z" />
    <glyph glyph-name="parenleft" unicode="(" horiz-adv-x="669" 
d="M132 474q0 195 96 384q71 140 180 253q86 90 106 90q8 0 22.5 -7.5t14.5 -13.5l-68 -117q-194 -337 -194 -587q0 -265 186 -573q62 -103 65 -103q0 -8 -15.5 -16t-24.5 -8q-17 0 -102 89q-266 280 -266 609z" />
    <glyph glyph-name="parenright" unicode=")" horiz-adv-x="601" 
d="M520 474q0 -184 -92 -365q-68 -134 -173 -244q-85 -89 -103 -89q-9 0 -24.5 8t-15.5 16q3 0 65 103q186 308 186 573q0 250 -194 587l-68 117q0 6 14.5 13.5t22.5 7.5q20 0 106 -90q109 -113 180 -253q96 -189 96 -384z" />
    <glyph glyph-name="plus" unicode="+" horiz-adv-x="1013" 
d="M905 338h-345v-344h-101v344h-345v102h345v345h101v-345h345v-102z" />
    <glyph glyph-name="comma" unicode="," horiz-adv-x="481" 
d="M92 113q0 55 39.5 92t94.5 37q67 0 116 -51.5t49 -119.5q0 -144 -158 -272h-103q130 112 130 207q-25 -9 -50 -9q-51 0 -84.5 32.5t-33.5 83.5z" />
    <glyph glyph-name="period" unicode="." horiz-adv-x="411" 
d="M318 115q0 -49 -33 -82.5t-82 -33.5t-82 33.5t-33 82.5q0 48 33.5 81.5t81.5 33.5t81.5 -33.5t33.5 -81.5z" />
    <glyph glyph-name="slash" unicode="/" horiz-adv-x="656" 
d="M529 1253l-288 -1360h-107l287 1360h108z" />
    <glyph glyph-name="colon" unicode=":" horiz-adv-x="410" 
d="M338 115q0 -49 -33 -82.5t-82 -33.5t-82 33.5t-33 82.5q0 48 33.5 81.5t81.5 33.5t81.5 -33.5t33.5 -81.5zM338 652q0 -48 -33.5 -82t-81.5 -34q-49 0 -82 33.5t-33 82.5q0 48 33.5 81.5t81.5 33.5t81.5 -33.5t33.5 -81.5z" />
    <glyph glyph-name="equal" unicode="=" horiz-adv-x="969" 
d="M840 224h-722v102h722v-102zM840 462h-722v102h722v-102z" />
    <glyph glyph-name="currency" unicode="&#xa4;" horiz-adv-x="2400" 
d="M1053 1494l25 -36q0 -49 -33 -64l-33 27q-9 -36 -34 -36q-33 13 -33 27q22 58 42 63l33 -26q0 26 33 45zM1460 1402l25 -36v-28q0 -13 -33 -35l-25 18h-17q0 -37 -25 -37q-13 0 -33 37q22 59 42 64l33 -28q0 27 33 45zM2356 1312h16l-25 -156h9q27 19 41 19l25 -36
q0 -105 -191 -191q-35 -93 -133 -182q-26 -19 -50 -19q104 96 191 255q34 36 50 36l-8 19q30 33 66 236q9 0 9 19zM2165 1303h16v-64q0 -136 -33 -218h-17q9 215 34 282zM846 1257q13 0 33 -37q0 -48 -33 -64q-41 24 -42 38q22 58 42 63zM1907 1239h17q-25 -154 -25 -265
q28 -17 41 -17q43 94 75 109h17l58 -9v-19q-92 -161 -150 -163h-16q-67 4 -67 73q25 223 50 291zM1070 1166v-18q-2 -16 -75 -63q17 -31 17 -56q-18 -16 -83 -27q0 -38 -75 -54q-26 -73 -75 -73h-8q-33 14 -33 54q-49 -66 -125 -73v9q130 96 141 182h17q0 -20 -8 -35
q18 -55 33 -55h8q33 0 158 109q25 64 108 100zM1824 1121h8q-27 -383 -189 -383h-42q-48 0 -74 63v83q0 40 41 145h17v-8q-34 -72 -34 -118q0 -83 92 -83q158 0 158 273zM2297 1047h9q81 35 83 55v9h-42q-15 0 -50 -64zM573 1102h8q11 0 25 -27v-37q-21 -163 -133 -163v9
q92 68 92 100h-9q-33 0 -33 18v10q0 53 50 90zM1444 1102q11 0 41 -45v-36q-36 -146 -108 -146q-35 0 -66 45q0 -43 -108 -64v9q128 96 141 182h16l-8 -63q31 -27 58 -27q27 17 42 17v28l-42 -9q-16 22 -16 36q22 61 50 73zM1211 1085h17v-10q-35 -191 -108 -191
q-14 -9 -42 -9v9q119 96 133 201zM440 1047h17q0 -151 -299 -182h-33q-125 12 -125 55v18l8 91h17q0 -72 149 -72q263 21 266 90zM1668 1038h16q13 0 34 -36q0 -49 -34 -64h-8q-14 0 -33 36q25 47 25 64zM1957 957h17q56 25 74 64l-33 8q-18 0 -58 -72zM183 783q12 0 33 -36
q0 -49 -33 -64q-42 24 -42 36q22 59 42 64zM191 501q241 0 241 -227v-19q0 -246 -283 -246h-33q-43 0 -50 27v437q0 28 125 28zM556 501h17q165 0 165 -146q0 -154 -190 -154h-25v-173q0 -19 -16 -19h-25q-17 0 -17 19v445q0 28 91 28zM771 501h33q29 0 91 -392h17
q76 392 100 392h41q22 0 92 -409h8q59 339 100 409h33l16 -9q-116 -457 -133 -483h-41q-30 0 -91 392q-17 0 -100 -382l-17 -10h-41q-18 0 -116 473q-9 0 -9 10zM1344 501h207q17 -3 17 -19v-17q0 -18 -17 -18h-166v-156h158q17 -3 17 -17v-19q0 -18 -17 -18h-158v-173h175
q16 -3 16 -19v-17q0 -19 -16 -19h-216q-17 0 -17 19v454q3 19 17 19zM1684 501h50q148 -9 148 -109v-18q0 -50 -65 -109q64 0 82 -102v-26q0 -128 -173 -128h-91q-17 0 -17 19v445q4 28 66 28zM2123 501h25q12 0 25 -28v-17q0 -15 -33 -37h-17q-11 0 -25 28v26q0 13 25 28z
M125 447v-383l41 -10q208 0 208 192v36q0 174 -191 174zM523 437v-182l42 -9q115 16 115 100v18q0 80 -107 92h-33q-17 -3 -17 -19zM1676 447v-156h50q98 0 98 101q-15 64 -115 64q-15 -9 -33 -9zM2372 374h25q17 -3 17 -19v-27l-75 -46q-25 -35 -25 -81v-173q0 -19 -17 -19
h-24q-17 0 -17 19v318q3 18 17 18h16q17 0 17 -64h8q0 42 58 74zM2123 364h25q17 -2 17 -18v-318q0 -19 -17 -19h-25q-17 0 -17 19v318q3 18 17 18zM1676 246v-182l33 -10q132 0 132 102q0 90 -157 90h-8zM1974 92h24q34 -20 34 -47q-16 -41 -34 -45h-24q-11 0 -25 28v36
q0 13 25 28z" />
    <glyph glyph-name="section" unicode="&#xa7;" horiz-adv-x="870" 
d="M347 722q-54 47 -87.5 81t-53 62t-26.5 54t-7 58q0 49 19 90.5t53.5 71.5t82 47t104.5 17q51 0 96.5 -14t80 -37.5t55 -55t20.5 -66.5q0 -21 -9.5 -41t-25 -35.5t-36 -25t-42.5 -9.5q-19 0 -37.5 9t-33.5 23t-24 32t-9 35q0 38 46 75q27 24 27 33q0 7 -8 14t-21 12t-30 8
t-36 3q-64 0 -104 -33t-40 -87q0 -88 181 -207q87 -57 151 -119.5t103 -130.5q35 -58 35 -141q0 -47 -17 -85.5t-49 -63.5q-29 -24 -69 -34t-111 -11q48 -34 82 -65.5t55.5 -62t31 -62t9.5 -66.5q0 -49 -21.5 -90.5t-59.5 -71.5t-90 -46.5t-114 -16.5q-54 0 -101.5 14
t-83.5 37.5t-56.5 55t-20.5 67.5q0 24 8.5 45t23.5 36t35 24t43 9t43.5 -8t36 -21.5t24.5 -31.5t9 -37q0 -21 -12 -37.5t-41 -35.5q-15 -9 -21 -15t-6 -11q0 -10 10 -19.5t26.5 -16.5t38 -11t44.5 -4q137 0 137 124q0 20 -3 36t-10.5 30t-20 27.5t-30.5 28.5l-99 80
q-92 74 -149.5 125.5t-89.5 92t-43 76.5t-11 80q0 104 55.5 158t159.5 54h33zM324 683q-42 0 -68.5 -28t-26.5 -70q0 -24 4.5 -42t17.5 -37.5t37.5 -43t63.5 -57.5q40 -34 68 -56t49.5 -35t39.5 -18t38 -5q39 0 65.5 28t26.5 73q0 18 -3.5 33.5t-12.5 31t-23.5 32
t-35.5 36.5q-86 83 -143.5 120.5t-96.5 37.5z" />
    <glyph glyph-name="guillemotleft" unicode="&#xab;" horiz-adv-x="836" 
d="M442 616q-55 -109 -55 -223q0 -138 131 -311v1q20 -23 29.5 -39t12.5 -24q0 -25 -26 -25q-6 0 -21 6q-136 70 -219 167v-1q-92 109 -92 229q1 52 20.5 104t57.5 103q27 37 64.5 73.5t81.5 68.5q73 54 102 54q35 0 35 -24q0 -10 -8 -18q-27 -27 -46 -49t-32 -39.5
t-21.5 -30.5t-14.5 -23zM721 616q-55 -109 -55 -223q0 -138 131 -311v1q20 -23 29.5 -39t12.5 -24q0 -25 -26 -25q-7 0 -20 6q-68 35 -123 76t-97 91v-1q-92 109 -92 229q1 52 20.5 104t57.5 103q27 37 64.5 73.5t81.5 68.5q73 54 102 54q35 0 35 -24q0 -10 -8 -18
q-27 -27 -46 -49t-32 -39.5t-21.5 -30.5t-14.5 -23z" />
    <glyph glyph-name="logicalnot" unicode="&#xac;" horiz-adv-x="992" 
d="M782 541h-724v153h877v-506h-153v353z" />
    <glyph glyph-name="degree" unicode="&#xb0;" horiz-adv-x="696" 
d="M348 1198q52 0 97.5 -19.5t79 -53t53 -79t19.5 -97.5q0 -53 -19.5 -98.5t-53.5 -79t-80 -52.5t-99 -19q-51 0 -96 19.5t-78 53t-52.5 79t-19.5 97.5t19.5 97.5t53 79t79 53t97.5 19.5zM348 1135q-36 0 -68.5 -15t-56.5 -40.5t-38 -59t-14 -71.5t14 -72t38 -59.5t56 -40.5
t68 -15q37 0 69.5 14.5t56.5 40t38 59.5t14 73q0 38 -14 71.5t-38.5 59t-56.5 40.5t-68 15z" />
    <glyph glyph-name="paragraph" unicode="&#xb6;" horiz-adv-x="940" 
d="M510 -324h-304v43q48 5 75.5 10t42 14t18 24.5t3.5 42.5l2 17v635q-33 1 -59.5 4t-48 8.5t-41 13.5t-38.5 20q-78 46 -119 129.5t-41 199.5q0 175 92.5 257t289.5 82h522v-43q-15 -2 -28 -2.5t-18 -0.5q-32 -4 -51 -8.5t-29 -13.5t-13 -24.5t-3 -40.5l-1 -18v-1198l1 -17
q1 -26 3.5 -41t12 -24t27.5 -13.5t50 -8.5q4 0 15 -1t25 -3v-43h-298v1457h-87v-1457zM347 1133q-31 -8 -54 -16t-40 -18.5t-29.5 -24.5t-22.5 -33q-21 -35 -33 -85.5t-12 -114.5q0 -138 46 -219.5t145 -116.5v628z" />
    <glyph glyph-name="guillemotright" unicode="&#xbb;" horiz-adv-x="836" 
d="M573 622q-12 19 -35.5 52.5t-77.5 87.5q-8 8 -8 18q0 24 35 24q27 0 101 -53q43 -32 80 -68t64 -73q37 -51 56.5 -102t20.5 -102q0 -119 -91 -227v1q-82 -97 -217 -165q-14 -6 -20 -6q-26 0 -26 25q3 8 12.5 23.5t29.5 38.5v-1q129 171 129 308q0 112 -54 220zM297 622
q-12 19 -35.5 52.5t-77.5 87.5q-8 8 -8 18q0 24 35 24q27 0 101 -53q43 -32 80 -68t64 -73q37 -51 56.5 -102t20.5 -102q0 -119 -91 -227v1q-82 -97 -217 -165q-14 -6 -20 -6q-26 0 -26 25q3 8 12.5 23.5t29.5 38.5v-1q129 171 129 308q0 112 -54 220z" />
    <glyph glyph-name="afii57388" unicode="&#x60c;" horiz-adv-x="481" 
d="M399 127q0 -55 -39.5 -92t-94.5 -37q-67 0 -116 51.5t-49 119.5q0 144 158 272h103q-130 -112 -130 -207q25 9 50 9q51 0 84.5 -32.5t33.5 -83.5z" />
    <glyph glyph-name="afii57403" unicode="&#x61b;" horiz-adv-x="484" 
d="M372 115q0 -49 -33 -82.5t-82 -33.5t-82 33.5t-33 82.5q0 48 33.5 81.5t81.5 33.5t81.5 -33.5t33.5 -81.5zM399 567q0 -56 -39 -92t-95 -36q-68 0 -116.5 51.5t-48.5 119.5q0 144 158 272h103q-130 -112 -130 -207q25 8 50 8q52 0 85 -32t33 -84z" />
    <glyph glyph-name="afii57407" unicode="&#x61f;" horiz-adv-x="764" 
d="M670 960q0 -64 -35 -118q-39 -61 -100 -61q-38 0 -67 26t-29 63q0 115 102 115q32 0 68 -18q1 8 1 16q0 42 -38 85q-55 62 -148 62q-75 0 -121 -50.5t-46 -126.5q0 -87 99 -251t99 -268q0 -26 -3 -50l-15 -121l-50 3l7 102v9q0 67 -70 135l-145 141q-79 100 -79 231
q0 125 89.5 220.5t213.5 95.5q104 0 184 -67q83 -70 83 -173zM492 90q0 -37 -26.5 -63t-63.5 -26t-63 26t-26 63t26 63t63 26t63.5 -26t26.5 -63z" />
    <glyph glyph-name="afii57440" unicode="&#x640;" horiz-adv-x="935" 
d="M972 1h-998v257h998v-257z" />
    <glyph glyph-name="afii57451" unicode="&#x64b;" 
d="M476 1484l-391 -138v106l391 137v-105zM476 1696l-391 -139v106l391 137v-104z" />
    <glyph glyph-name="afii57452" unicode="&#x64c;" 
d="M502 1630q0 -88 -66 -129q17 -22 44 -29l-59 -87q-42 7 -88 42q-130 -65 -190 -65q-17 0 -69 49q-11 10 -11 15q10 3 63 16q17 4 23 27q4 12 4 21q0 28 -32 28q-29 0 -49 -21l-35 34q41 46 83 46q66 0 83 -44q5 -12 5 -25q0 -25 -20 -51q52 11 87 30q-23 35 -23 70
q0 65 73 123q61 48 95 48t58 -31.5t24 -66.5zM419 1598q0 47 -35 47q-16 0 -31 -18t-15 -34q0 -39 37 -60q44 28 44 65z" />
    <glyph glyph-name="afii57453" unicode="&#x64d;" 
d="M480 -982l-391 -138v105l391 138v-105zM480 -771l-391 -138v106l391 137v-105z" />
    <glyph glyph-name="afii57454" unicode="&#x64e;" 
d="M476 1484l-391 -138v106l391 137v-105z" />
    <glyph glyph-name="afii57455" unicode="&#x64f;" 
d="M502 1630q0 -88 -66 -129q17 -22 44 -29l-59 -87q-42 7 -88 42q-141 -70 -185 -70q-24 0 -86 59q-13 12 -13 18q0 9 39 11q123 8 187 42q-23 35 -23 70q0 65 73 123q61 48 95 48t58 -31.5t24 -66.5zM419 1598q0 47 -35 47q-16 0 -31 -18t-15 -34q0 -36 39 -58
q42 33 42 63z" />
    <glyph glyph-name="afii57456" unicode="&#x650;" 
d="M466 -775l-391 -138v105l391 138v-105z" />
    <glyph glyph-name="afii57457" unicode="&#x651;" 
d="M484 1557q0 -60 -25 -103q-30 -53 -85 -53q-59 0 -92 29q-58 -82 -118 -82q-94 0 -94 123q0 39 11 76q16 52 46 52q11 0 14 -65q2 -59 49 -59q42 0 53 78t28 78q21 0 37 -58.5t59 -58.5q46 0 46 51q0 20 -11 78l62 39q20 -41 20 -125z" />
    <glyph glyph-name="afii57458" unicode="&#x652;" 
d="M410 1521q0 -73 -35 -119q-39 -52 -109 -52q-53 0 -90 32.5t-37 85.5q0 54 28 124q35 88 85 88q51 0 99 -38q59 -46 59 -121zM354 1497q0 31 -38.5 60t-70.5 29q-49 0 -49 -68q0 -57 86 -57q72 0 72 36z" />
    <glyph glyph-name="uni06F0" unicode="&#x660;" horiz-adv-x="734" 
d="M610 479q-54 -49 -127 -120q-37 -36 -112 -127q-55 67 -117 134q-32 34 -131 110q64 54 125 114q34 33 115 136q55 -65 107 -122q38 -41 140 -125z" />
    <glyph glyph-name="uni06F0" unicode="&#x6f0;" horiz-adv-x="734" 
d="M610 479q-54 -49 -127 -120q-37 -36 -112 -127q-55 67 -117 134q-32 34 -131 110q64 54 125 114q34 33 115 136q55 -65 107 -122q38 -41 140 -125z" />
    <glyph glyph-name="uni06F1" unicode="&#x661;" horiz-adv-x="705" 
d="M556 364q0 -169 -30 -302q-33 -147 -84 -147q-32 0 -40 66q-3 24 -3 118q0 514 -259 884q29 48 158 245q59 -40 140 -233q118 -280 118 -631z" />
    <glyph glyph-name="uni06F1" unicode="&#x6f1;" horiz-adv-x="705" 
d="M556 364q0 -169 -30 -302q-33 -147 -84 -147q-32 0 -40 66q-3 24 -3 118q0 514 -259 884q29 48 158 245q59 -40 140 -233q118 -280 118 -631z" />
    <glyph glyph-name="uni06F2" unicode="&#x662;" horiz-adv-x="995" 
d="M885 1175q0 -169 -90 -282q-97 -122 -261 -122q-18 0 -35 2q63 -239 63 -523q0 -331 -97 -331q-33 0 -38 54l-12 174q-12 147 -56 311q-64 241 -251 533l145 247q32 -39 98 -114q79 -84 205 -84q101 0 162 51q35 29 69 93q27 51 48 51q50 0 50 -60z" />
    <glyph glyph-name="uni06F2" unicode="&#x6f2;" horiz-adv-x="995" 
d="M885 1175q0 -169 -90 -282q-97 -122 -261 -122q-18 0 -35 2q63 -239 63 -523q0 -331 -97 -331q-33 0 -38 54l-12 174q-12 147 -56 311q-64 241 -251 533l145 247q32 -39 98 -114q79 -84 205 -84q101 0 162 51q35 29 69 93q27 51 48 51q50 0 50 -60z" />
    <glyph glyph-name="uni06F3" unicode="&#x663;" horiz-adv-x="1152" 
d="M1039 1145q0 -115 -48 -223q-61 -138 -166 -138q-57 0 -84 12.5t-62 55.5q-66 -99 -183 -104q67 -199 67 -485q0 -129 -20 -223q-26 -122 -74 -122q-38 0 -42 51l-12 174q-13 149 -62 330q-82 302 -252 509l147 259q23 -19 62 -84q40 -68 65 -92q46 -45 104 -45
q77 0 110 55q14 23 31 101q12 55 42 55q40 0 50 -50q17 -87 19 -91q24 -50 97 -50q57 0 87 51q11 19 34 93q16 51 39 51q51 0 51 -90z" />
    <glyph glyph-name="uni06F3" unicode="&#x6f3;" horiz-adv-x="1152" 
d="M1039 1145q0 -115 -48 -223q-61 -138 -166 -138q-57 0 -84 12.5t-62 55.5q-66 -99 -183 -104q67 -199 67 -485q0 -129 -20 -223q-26 -122 -74 -122q-38 0 -42 51l-12 174q-13 149 -62 330q-82 302 -252 509l147 259q23 -19 62 -84q40 -68 65 -92q46 -45 104 -45
q77 0 110 55q14 23 31 101q12 55 42 55q40 0 50 -50q17 -87 19 -91q24 -50 97 -50q57 0 87 51q11 19 34 93q16 51 39 51q51 0 51 -90z" />
    <glyph glyph-name="afii57396" horiz-adv-x="1033" 
 />
    <glyph glyph-name="afii57397" horiz-adv-x="1101" 
 />
    <glyph glyph-name="afii57398" horiz-adv-x="1008" 
 />
    <glyph glyph-name="uni06F7" unicode="&#x667;" horiz-adv-x="1128" 
d="M1019 941q-184 -230 -281 -493q-36 -99 -91 -346q-37 -168 -71 -168q-41 0 -70 124q-56 238 -106 375q-107 294 -290 498l92 281q9 28 16 28q6 0 23 -19q109 -122 207 -372q83 -212 124 -415q33 196 105 396q92 257 207 393q14 17 21 17q6 0 16 -28z" />
    <glyph glyph-name="uni06F7" unicode="&#x6f7;" horiz-adv-x="1128" 
d="M1019 941q-184 -230 -281 -493q-36 -99 -91 -346q-37 -168 -71 -168q-41 0 -70 124q-56 238 -106 375q-107 294 -290 498l92 281q9 28 16 28q6 0 23 -19q109 -122 207 -372q83 -212 124 -415q33 196 105 396q92 257 207 393q14 17 21 17q6 0 16 -28z" />
    <glyph glyph-name="uni06F8" unicode="&#x668;" horiz-adv-x="1163" 
d="M144 231q186 231 281 492q35 95 91 347q37 168 71 168q41 0 70 -125q54 -232 106 -374q109 -297 290 -499l-92 -281q-9 -28 -16 -28q-6 0 -24 20q-110 123 -207 372q-82 209 -123 414q-33 -192 -106 -395q-92 -256 -207 -393q-14 -17 -20 -17q-7 0 -17 27z" />
    <glyph glyph-name="uni06F8" unicode="&#x6f8;" horiz-adv-x="1163" 
d="M144 231q186 231 281 492q35 95 91 347q37 168 71 168q41 0 70 -125q54 -232 106 -374q109 -297 290 -499l-92 -281q-9 -28 -16 -28q-6 0 -24 20q-110 123 -207 372q-82 209 -123 414q-33 -192 -106 -395q-92 -256 -207 -393q-14 -17 -20 -17q-7 0 -17 27z" />
    <glyph glyph-name="uni06F9" unicode="&#x669;" horiz-adv-x="995" 
d="M882 196l-82 -281q-169 125 -219 344q-21 93 -21 274v17q-83 -8 -134 -8q-309 0 -309 206q0 104 66 264q91 221 238 221q293 0 293 -475q0 -273 57 -409q29 -69 111 -153zM532 816q-1 62 -48 107.5t-110 45.5q-53 0 -84 -34q-23 -26 -23 -54q0 -76 120 -76q119 0 145 11z
" />
    <glyph glyph-name="uni06F9" unicode="&#x6f9;" horiz-adv-x="995" 
d="M882 196l-82 -281q-169 125 -219 344q-21 93 -21 274v17q-83 -8 -134 -8q-309 0 -309 206q0 104 66 264q91 221 238 221q293 0 293 -475q0 -273 57 -409q29 -69 111 -153zM532 816q-1 62 -48 107.5t-110 45.5q-53 0 -84 -34q-23 -26 -23 -54q0 -76 120 -76q119 0 145 11z
" />
    <glyph glyph-name="afii57381" unicode="&#x66a;" horiz-adv-x="1031" 
d="M329 1041q0 -44 -29.5 -73t-73.5 -29q-43 0 -73 29.5t-30 72.5q0 42 30.5 72t72.5 30q43 0 73 -29.5t30 -72.5zM821 1259l-478 -1360l-98 1l481 1361zM918 88q0 -43 -29.5 -73t-72.5 -30q-45 0 -74 29t-29 74q0 43 30 72.5t73 29.5q42 0 72 -30t30 -72z" />
    <glyph glyph-name="uni0670" unicode="&#x670;" horiz-adv-x="239" 
d="M201 1197q0 -33 -52 -103q-14 -18 -19 -18q-8 0 -14 41l-64 467l125 68q10 6 17 6t7 -9v-452z" />
    <glyph glyph-name="uni0653" unicode="&#x653;" horiz-adv-x="396" 
d="M472 1457q0 -63 -131 -115q-111 -44 -186 -44q-32 0 -85.5 14.5t-73.5 14.5q-18 0 -38 -30t-35 -30q-30 0 -30 46q0 30 41 99q44 75 77 75q0 -12 101 -33t144 -21q72 0 132 24l61 24q23 0 23 -24z" />
    <glyph glyph-name="uni06F4" unicode="&#x664;" horiz-adv-x="1033" 
d="M923 903q0 -95 -97 -193q-111 -113 -265 -113q-34 0 -69 6q38 -214 38 -267q0 -131 -13 -240q-23 -196 -80 -196q-49 0 -57 135q-16 250 -36 353q-63 316 -237 542q46 87 148 261q54 -44 137 -178q104 200 282 200q75 0 139 -60q53 -50 53 -77q0 -41 -26 -41
q-20 0 -76 17t-92 17q-83 0 -129 -53q-36 -42 -36 -93q0 -12 4 -23q34 -93 170 -93q92 0 164 60q63 53 68 53q10 0 10 -17z" />
    <glyph glyph-name="uni06F4" unicode="&#x6f4;" horiz-adv-x="1033" 
d="M923 903q0 -95 -97 -193q-111 -113 -265 -113q-34 0 -69 6q38 -214 38 -267q0 -131 -13 -240q-23 -196 -80 -196q-49 0 -57 135q-16 250 -36 353q-63 316 -237 542q46 87 148 261q54 -44 137 -178q104 200 282 200q75 0 139 -60q53 -50 53 -77q0 -41 -26 -41
q-20 0 -76 17t-92 17q-83 0 -129 -53q-36 -42 -36 -93q0 -12 4 -23q34 -93 170 -93q92 0 164 60q63 53 68 53q10 0 10 -17z" />
    <glyph glyph-name="uni06F5" unicode="&#x665;" horiz-adv-x="1101" 
d="M991 286q0 -143 -59 -238q-71 -113 -205 -113q-109 0 -165 106q-79 -122 -205 -122q-113 0 -177 81q-59 75 -59 191q0 127 114 391q89 205 175 347l-39 45l104 241q9 22 18 22q7 0 21 -18q236 -298 343 -493q134 -245 134 -440zM859 277q0 85 -147 296q-123 177 -226 281
q-59 -107 -128 -287q-76 -198 -76 -265q0 -119 110 -119q72 0 101 45q10 15 29 84q12 45 44 45q40 0 52 -43q20 -73 25 -80q28 -43 107 -43q109 0 109 86z" />
    <glyph glyph-name="uni06F5" unicode="&#x6f5;" horiz-adv-x="1101" 
d="M991 286q0 -143 -59 -238q-71 -113 -205 -113q-109 0 -165 106q-79 -122 -205 -122q-113 0 -177 81q-59 75 -59 191q0 127 114 391q89 205 175 347l-39 45l104 241q9 22 18 22q7 0 21 -18q236 -298 343 -493q134 -245 134 -440zM859 277q0 85 -147 296q-123 177 -226 281
q-59 -107 -128 -287q-76 -198 -76 -265q0 -119 110 -119q72 0 101 45q10 15 29 84q12 45 44 45q40 0 52 -43q20 -73 25 -80q28 -43 107 -43q109 0 109 86z" />
    <glyph glyph-name="uni06F6" unicode="&#x666;" horiz-adv-x="1008" 
d="M894 846q-6 -39 -33 -143q-31 -117 -43 -127q-14 -5 -35 -12t-48 -18q-87 -33 -181 -116.5t-199 -216.5q-42 -53 -80.5 -108.5t-75.5 -115.5q-38 -60 -63 -60q-24 0 -24 52q0 66 28.5 151.5t78.5 183.5q43 84 160 228q-222 54 -222 257q0 100 116 237q163 190 283 190
q36 0 74 -17.5t69.5 -44.5t52 -60.5t20.5 -65.5q0 -38 -20 -38q-6 0 -33.5 7.5t-61.5 16.5t-67 16.5t-51 7.5q-44 0 -84.5 -14t-71.5 -37t-49 -52t-18 -58q0 -32 20 -60t52 -48.5t73 -32.5t83 -12q50 0 184 78q135 78 155 78q13 0 13 -24q0 -5 -0.5 -10t-1.5 -12z" />
    <glyph glyph-name="uni06F6" unicode="&#x6f6;" horiz-adv-x="1008" 
d="M894 846q-6 -39 -33 -143q-31 -117 -43 -127q-14 -5 -35 -12t-48 -18q-87 -33 -181 -116.5t-199 -216.5q-42 -53 -80.5 -108.5t-75.5 -115.5q-38 -60 -63 -60q-24 0 -24 52q0 66 28.5 151.5t78.5 183.5q43 84 160 228q-222 54 -222 257q0 100 116 237q163 190 283 190
q36 0 74 -17.5t69.5 -44.5t52 -60.5t20.5 -65.5q0 -38 -20 -38q-6 0 -33.5 7.5t-61.5 16.5t-67 16.5t-51 7.5q-44 0 -84.5 -14t-71.5 -37t-49 -52t-18 -58q0 -32 20 -60t52 -48.5t73 -32.5t83 -12q50 0 184 78q135 78 155 78q13 0 13 -24q0 -5 -0.5 -10t-1.5 -12z" />
    <glyph glyph-name="afii61664" unicode="&#x200c;" horiz-adv-x="45" 
d="M45 0h-45v1628h45v-1628z" />
    <glyph glyph-name="afii301" unicode="&#x200d;" horiz-adv-x="45" 
d="M160 1496l-30 -30l-85 85v-1551h-45v1550l-84 -84l-30 30l107 107l-107 107l30 30l107 -107l107 107l30 -30l-107 -107z" />
    <glyph glyph-name="afii299" unicode="&#x200e;" horiz-adv-x="45" 
d="M303 1604l-137 -138l-31 31l86 86h-176v-1583h-45v1628h217l-82 82l31 31z" />
    <glyph glyph-name="afii300" unicode="&#x200f;" horiz-adv-x="45" 
d="M45 0h-45v1583h-176l86 -86l-31 -31l-137 138l137 137l31 -31l-82 -82h217v-1628z" />
    <glyph glyph-name="bullet" unicode="&#x2022;" horiz-adv-x="576" 
d="M517 358q0 -98 -65.5 -163.5t-163.5 -65.5t-163.5 65.5t-65.5 163.5q0 99 65 164.5t164 65.5t164 -65t65 -165z" />
    <glyph glyph-name="ellipsis" unicode="&#x2026;" horiz-adv-x="1199" 
d="M318 115q0 -49 -33 -82.5t-82 -33.5t-82 33.5t-33 82.5q0 48 33.5 81.5t81.5 33.5t81.5 -33.5t33.5 -81.5zM718 115q0 -49 -33 -82.5t-82 -33.5t-82 33.5t-33 82.5q0 48 33.5 81.5t81.5 33.5t81.5 -33.5t33.5 -81.5zM1118 115q0 -49 -33 -82.5t-82 -33.5t-82 33.5
t-33 82.5q0 48 33.5 81.5t81.5 33.5t81.5 -33.5t33.5 -81.5z" />
    <glyph glyph-name="multiply" unicode="&#xd7;" horiz-adv-x="973" 
d="M865 61l-76 -74l-306 306l-308 -307l-72 75l306 306l-304 307l70 73l307 -307l305 307l75 -73l-304 -306z" />
    <glyph glyph-name="uni0654" unicode="&#x654;" horiz-adv-x="396" 
d="M388 1487q3 -9 3 -25q0 -26 -5 -47t-9 -26q-70 -18 -157.5 -50t-193.5 -78l-1 74q17 9 40 21t54 27q-14 6 -28 18t-25 27t-18 31.5t-7 30.5q0 28 20 61t49.5 61t63.5 46.5t62 18.5q15 0 34 -7t35.5 -18t28 -24.5t11.5 -25.5q0 -40 -31 -40q-5 0 -17.5 4t-27.5 9t-30 9
t-25 4q-14 0 -28.5 -4t-27 -11t-20.5 -16t-8 -19q0 -18 10 -34.5t26 -28.5t34.5 -19.5t35.5 -7.5q12 0 36 5.5t48.5 12.5t44.5 13.5t23 7.5z" />
    <glyph glyph-name="uni0655" unicode="&#x655;" horiz-adv-x="484" 
d="M533 -336q1 -4 1.5 -8.5t0.5 -11.5q0 -25 -5 -49t-9 -29q-140 -36 -351 -129l-1 74q17 9 40.5 21t53.5 28q-12 5 -26 17t-25.5 27.5t-19 32t-7.5 29.5q0 57 69 123q68 65 127 65q15 0 34 -7t35.5 -18.5t28 -24.5t11.5 -25q0 -41 -31 -41q-5 0 -17.5 4t-27.5 9.5t-30 9.5
t-25 4q-13 0 -28 -4t-27.5 -11t-20.5 -16t-8 -19q0 -18 10 -34t25.5 -28.5t34.5 -20t36 -7.5q25 0 62.5 11.5t89.5 27.5z" />
    <glyph glyph-name="uni0656" unicode="&#x656;" horiz-adv-x="1381" 
d="M724 -1067q0 -33 -52 -103q-14 -18 -19 -18q-8 0 -14 41l-64 467l125 68q10 6 17 6t7 -9v-452z" />
    <glyph glyph-name="uni066B" unicode="&#x66b;" horiz-adv-x="501" 
d="M545 546l-470 -918l-98 1l473 919z" />
    <glyph glyph-name="uni066C" unicode="&#x66c;" horiz-adv-x="329" 
d="M359 987q0 -55 -39.5 -92t-94.5 -37q-67 0 -116 51.5t-49 119.5q0 144 158 272h103q-130 -112 -130 -207q25 9 50 9q51 0 84.5 -32.5t33.5 -83.5z" />
    <glyph glyph-name="minus" unicode="&#x2212;" horiz-adv-x="1026" 
d="M913 338h-791v102h791v-102z" />
    <glyph glyph-name="uni2010" unicode="&#x2010;" horiz-adv-x="935" 
d="M972 1h-998v257h998v-257z" />
    <glyph glyph-name="hyphen" unicode="-" horiz-adv-x="683" 
d="M593 397h-521v138h521v-138z" />
    <glyph glyph-name="uni25CC" unicode="&#x25cc;" horiz-adv-x="920" 
d="M829 603q-21 0 -35.5 14.5t-14.5 35.5t14.5 35.5t35.5 14.5t35.5 -14.5t14.5 -35.5t-14.5 -35.5t-35.5 -14.5zM613 819q-21 0 -35.5 14.5t-14.5 35.5t14.5 35.5t35.5 14.5t35.5 -14.5t14.5 -35.5t-14.5 -35.5t-35.5 -14.5zM860 450q-21 0 -35.5 14.5t-14.5 35.5
t14.5 35.5t35.5 14.5t35.5 -14.5t14.5 -35.5t-14.5 -35.5t-35.5 -14.5zM743 733q-21 0 -35.5 14.5t-14.5 35.5t14.5 35.5t35.5 14.5t35.5 -14.5t14.5 -35.5t-14.5 -35.5t-35.5 -14.5zM563 130q0 21 14.5 35.5t35.5 14.5t35.5 -14.5t14.5 -35.5t-14.5 -35.5t-35.5 -14.5
t-35.5 14.5t-14.5 35.5zM779 347q0 21 14.5 35.5t35.5 14.5t35.5 -14.5t14.5 -35.5t-14.5 -35.5t-35.5 -14.5t-35.5 14.5t-14.5 35.5zM410 100q0 21 14.5 35.5t35.5 14.5t35.5 -14.5t14.5 -35.5t-14.5 -35.5t-35.5 -14.5t-35.5 14.5t-14.5 35.5zM693 217q0 21 14.5 35.5
t35.5 14.5t35.5 -14.5t14.5 -35.5t-14.5 -35.5t-35.5 -14.5t-35.5 14.5t-14.5 35.5zM90 397q21 0 35.5 -14.5t14.5 -35.5t-14.5 -35.5t-35.5 -14.5t-35.5 14.5t-14.5 35.5t14.5 35.5t35.5 14.5zM307 180q21 0 35.5 -14.5t14.5 -35.5t-14.5 -35.5t-35.5 -14.5t-35.5 14.5
t-14.5 35.5t14.5 35.5t35.5 14.5zM60 550q21 0 35.5 -14.5t14.5 -35.5t-14.5 -35.5t-35.5 -14.5t-35.5 14.5t-14.5 35.5t14.5 35.5t35.5 14.5zM177 267q21 0 35.5 -14.5t14.5 -35.5t-14.5 -35.5t-35.5 -14.5t-35.5 14.5t-14.5 35.5t14.5 35.5t35.5 14.5zM357 869
q0 -21 -14.5 -35.5t-35.5 -14.5t-35.5 14.5t-14.5 35.5t14.5 35.5t35.5 14.5t35.5 -14.5t14.5 -35.5zM140 653q0 -21 -14.5 -35.5t-35.5 -14.5t-35.5 14.5t-14.5 35.5t14.5 35.5t35.5 14.5t35.5 -14.5t14.5 -35.5zM510 900q0 -21 -14.5 -35.5t-35.5 -14.5t-35.5 14.5
t-14.5 35.5t14.5 35.5t35.5 14.5t35.5 -14.5t14.5 -35.5zM227 783q0 -21 -14.5 -35.5t-35.5 -14.5t-35.5 14.5t-14.5 35.5t14.5 35.5t35.5 14.5t35.5 -14.5t14.5 -35.5z" />
    <glyph glyph-name="Euro" unicode="&#x20ac;" horiz-adv-x="870" 
d="M-63 409l49 87h66q-2 16 -2 27v41q0 9 2 24h-115l49 88h73q6 36 12.5 63.5t13.5 51.5t16.5 46.5t21.5 48.5q31 64 73.5 115t92 86.5t105 54.5t114.5 19q26 0 46.5 -2.5t41.5 -9t45.5 -19t59.5 -32.5q10 -5 20.5 -7.5t19.5 -2.5q23 0 38 21t20 59h33v-388h-33
q-9 69 -24 117t-41 88q-36 58 -86.5 90.5t-107.5 32.5q-100 0 -155 -105t-73 -327h336l-51 -88h-287q-2 -13 -2 -21v-38q0 -12 2 -33h215l-50 -87h-160q16 -193 75 -297t155 -104q39 0 78.5 14t76 39.5t67.5 60t53 76.5v-90q-69 -76 -147 -113t-173 -37q-180 0 -291 114.5
t-148 336.5h-124z" />
    <glyph glyph-name="backslash" unicode="\" horiz-adv-x="846" 
d="M289 1462l545 -1462h-277l-545 1462h277z" />
    <glyph glyph-name="numbersign" unicode="#" horiz-adv-x="1323" 
d="M999 844l-47 -232h258v-206h-297l-77 -406h-220l78 406h-194l-76 -406h-215l74 406h-238v206h277l47 232h-252v209h289l77 407h219l-77 -407h198l78 407h215l-78 -407h240v-209h-279zM539 612h196l47 232h-196z" />
    <glyph glyph-name="dollar" unicode="$" horiz-adv-x="1169" 
d="M1092 457q0 -159 -115 -255.5t-322 -115.5v-205h-137v201q-244 5 -428 86v264q87 -43 209.5 -76t218.5 -39v310l-67 26q-198 78 -280.5 169.5t-82.5 226.5q0 145 113.5 238.5t316.5 113.5v153h137v-149q229 -10 414 -92l-94 -234q-156 64 -320 78v-295
q195 -75 277.5 -130t121 -121t38.5 -154zM791 442q0 42 -34 71t-102 60v-249q136 23 136 118zM389 1049q0 -44 30.5 -72.5t98.5 -58.5v235q-129 -19 -129 -104z" />
    <glyph glyph-name="asterisk" unicode="*" horiz-adv-x="870" 
d="M484 814q24 -11 42 -18t36 -11.5t39 -7.5t50 -6q71 -5 99 -25.5t28 -62.5q0 -38 -24.5 -63t-60.5 -25q-18 0 -32.5 5t-29.5 17t-31 33t-37 53q-13 18 -23.5 30.5t-21 21.5t-23.5 17t-32 18l-13 -8q4 -30 7.5 -51t9 -40t13.5 -38t21 -45q14 -28 19 -43t5 -30
q0 -19 -6.5 -35.5t-18.5 -29t-28 -19.5t-35 -7q-38 0 -60.5 27t-22.5 72q0 21 5 37t20 45q13 22 21 38t12 32.5t5.5 36.5t2.5 50l-13 8q-25 -18 -41 -31t-29.5 -26.5t-26 -30.5t-30.5 -42q-13 -20 -24 -33.5t-22 -21.5t-22.5 -11.5t-25.5 -3.5q-36 0 -61.5 25t-25.5 62
q0 97 148 97q27 1 45.5 3.5t34 7.5t31 14t36.5 23v12q-26 12 -46 19.5t-39.5 12t-41 7.5t-51.5 6q-34 3 -57 8.5t-36.5 16t-19 26.5t-5.5 40q0 38 22.5 61.5t60.5 23.5q35 0 58.5 -17t51.5 -61q16 -26 27.5 -42.5t24 -28.5t28 -22t40.5 -24l12 5q0 27 -2 46t-6.5 35.5
t-13 34t-22.5 42.5q-9 17 -15 29.5t-9.5 23t-5 20t-1.5 20.5q0 36 26 61.5t65 25.5q36 0 59.5 -26.5t23.5 -68.5q0 -20 -5 -37.5t-22 -47.5q-23 -36 -31 -64t-8 -61v-33l14 -5q24 19 40 33t29 28t25 30.5t29 40.5q26 40 46 54t49 14q17 0 33.5 -7.5t29 -19.5t20 -27.5
t7.5 -32.5q0 -23 -18 -48t-44 -38q-17 -6 -32 -9t-47 -3q-28 -1 -47 -3.5t-35.5 -7.5t-33 -13.5t-37.5 -21.5v-15z" />
    <glyph glyph-name="zero" unicode="0" horiz-adv-x="1169" 
d="M1096 731q0 -383 -125.5 -567t-386.5 -184q-253 0 -381.5 190t-128.5 561q0 387 125 570.5t385 183.5q253 0 382.5 -192t129.5 -562zM381 731q0 -269 46.5 -385.5t156.5 -116.5q108 0 156 118t48 384q0 269 -48.5 386.5t-155.5 117.5q-109 0 -156 -117.5t-47 -386.5z" />
    <glyph glyph-name="one" unicode="1" horiz-adv-x="1169" 
d="M846 0h-309v846l3 139l5 152q-77 -77 -107 -101l-168 -135l-149 186l471 375h254v-1462z" />
    <glyph glyph-name="two" unicode="2" horiz-adv-x="1169" 
d="M1104 0h-1022v215l367 371q163 167 213 231.5t72 119.5t22 114q0 88 -48.5 131t-129.5 43q-85 0 -165 -39t-167 -111l-168 199q108 92 179 130t155 58.5t188 20.5q137 0 242 -50t163 -140t58 -206q0 -101 -35.5 -189.5t-110 -181.5t-262.5 -265l-188 -177v-14h637v-260z
" />
    <glyph glyph-name="three" unicode="3" horiz-adv-x="1169" 
d="M1047 1135q0 -137 -83 -233t-233 -132v-6q177 -22 268 -107.5t91 -230.5q0 -211 -153 -328.5t-437 -117.5q-238 0 -422 79v263q85 -43 187 -70t202 -27q153 0 226 52t73 167q0 103 -84 146t-268 43h-111v237h113q170 0 248.5 44.5t78.5 152.5q0 166 -208 166
q-72 0 -146.5 -24t-165.5 -83l-143 213q200 144 477 144q227 0 358.5 -92t131.5 -256z" />
    <glyph glyph-name="four" unicode="4" horiz-adv-x="1169" 
d="M1137 303h-176v-303h-302v303h-624v215l641 944h285v-919h176v-240zM659 543v248q0 62 5 180t8 137h-8q-37 -82 -89 -160l-268 -405h352z" />
    <glyph glyph-name="five" unicode="5" horiz-adv-x="1169" 
d="M614 934q212 0 337.5 -119t125.5 -326q0 -245 -151 -377t-432 -132q-244 0 -394 79v267q79 -42 184 -68.5t199 -26.5q283 0 283 232q0 221 -293 221q-53 0 -117 -10.5t-104 -22.5l-123 66l55 745h793v-262h-522l-27 -287l35 7q61 14 151 14z" />
    <glyph glyph-name="six" unicode="6" horiz-adv-x="1169" 
d="M72 621q0 434 183.5 646t549.5 212q125 0 196 -15v-247q-89 20 -176 20q-159 0 -259.5 -48t-150.5 -142t-59 -267h13q99 170 317 170q196 0 307 -123t111 -340q0 -234 -132 -370.5t-366 -136.5q-162 0 -282.5 75t-186 219t-65.5 347zM600 227q99 0 152 66.5t53 189.5
q0 107 -49.5 168.5t-149.5 61.5q-94 0 -160.5 -61t-66.5 -142q0 -119 62.5 -201t158.5 -82z" />
    <glyph glyph-name="seven" unicode="7" horiz-adv-x="1169" 
d="M227 0l549 1200h-721v260h1049v-194l-553 -1266h-324z" />
    <glyph glyph-name="eight" unicode="8" horiz-adv-x="1169" 
d="M586 1481q210 0 338.5 -95.5t128.5 -257.5q0 -112 -62 -199.5t-200 -156.5q164 -88 235.5 -183.5t71.5 -209.5q0 -180 -141 -289.5t-371 -109.5q-240 0 -377 102t-137 289q0 125 66.5 222t213.5 171q-125 79 -180 169t-55 197q0 157 130 254t339 97zM358 389
q0 -86 60 -134t164 -48q115 0 172 49.5t57 130.5q0 67 -56.5 125.5t-183.5 124.5q-213 -98 -213 -248zM584 1255q-79 0 -127.5 -40.5t-48.5 -108.5q0 -60 38.5 -107.5t139.5 -97.5q98 46 137 94t39 111q0 69 -50 109t-128 40z" />
    <glyph glyph-name="nine" unicode="9" horiz-adv-x="1169" 
d="M1098 838q0 -432 -182 -645t-551 -213q-130 0 -197 14v248q84 -21 176 -21q155 0 255 45.5t153 143t61 268.5h-12q-58 -94 -134 -132t-190 -38q-191 0 -301 122.5t-110 340.5q0 235 133.5 371.5t363.5 136.5q162 0 283.5 -76t186.5 -220.5t65 -344.5zM569 1231
q-96 0 -150 -66t-54 -190q0 -106 49 -168t149 -62q94 0 161 61.5t67 141.5q0 119 -62.5 201t-159.5 82z" />
    <glyph glyph-name="semicolon" unicode=";" horiz-adv-x="594" 
d="M444 238l15 -23q-52 -202 -176 -479h-220q65 266 101 502h280zM117 969q0 84 45 127t131 43q83 0 128.5 -44t45.5 -126q0 -81 -46.5 -125.5t-127.5 -44.5q-84 0 -130 44t-46 126z" />
    <glyph glyph-name="less" unicode="&#x3c;" horiz-adv-x="1169" 
d="M1081 203l-993 438v143l993 496v-240l-684 -317l684 -281v-239z" />
    <glyph glyph-name="greater" unicode="&#x3e;" horiz-adv-x="1169" 
d="M88 442l684 281l-684 317v240l993 -496v-143l-993 -438v239z" />
    <glyph glyph-name="question" unicode="?" horiz-adv-x="977" 
d="M276 485v74q0 96 41 167t150 151q105 75 138.5 122t33.5 105q0 65 -48 99t-134 34q-150 0 -342 -98l-109 219q223 125 473 125q206 0 327.5 -99t121.5 -264q0 -110 -50 -190t-190 -180q-96 -71 -121.5 -108t-25.5 -97v-60h-265zM244 143q0 84 45 127t131 43
q83 0 128.5 -44t45.5 -126q0 -79 -46 -124.5t-128 -45.5q-84 0 -130 44.5t-46 125.5z" />
    <glyph glyph-name="at" unicode="@" horiz-adv-x="1837" 
d="M1735 752q0 -144 -46 -263.5t-130 -187.5t-195 -68q-74 0 -131 35.5t-82 93.5h-16q-108 -129 -275 -129q-177 0 -279 106.5t-102 291.5q0 211 134 340t350 129q86 0 189.5 -16.5t170.5 -39.5l-23 -489q0 -139 76 -139q64 0 102 93.5t38 244.5q0 161 -67 284.5
t-188.5 188.5t-277.5 65q-202 0 -351 -83t-228.5 -239.5t-79.5 -361.5q0 -276 147.5 -423.5t427.5 -147.5q106 0 233 23.5t250 68.5v-192q-214 -91 -475 -91q-380 0 -592.5 200t-212.5 556q0 247 108.5 448.5t309 316t461.5 114.5q220 0 393 -90t267 -256t94 -383zM711 627
q0 -211 172 -211q90 0 137 63.5t57 206.5l13 221q-51 11 -115 11q-125 0 -194.5 -78t-69.5 -213z" />
    <glyph glyph-name="A" unicode="A" horiz-adv-x="1413" 
d="M1079 0l-106 348h-533l-106 -348h-334l516 1468h379l518 -1468h-334zM899 608q-147 473 -165.5 535t-26.5 98q-33 -128 -189 -633h381z" />
    <glyph glyph-name="B" unicode="B" horiz-adv-x="1376" 
d="M184 1462h455q311 0 451.5 -88.5t140.5 -281.5q0 -131 -61.5 -215t-163.5 -101v-10q139 -31 200.5 -116t61.5 -226q0 -200 -144.5 -312t-392.5 -112h-547v1462zM494 883h180q126 0 182.5 39t56.5 129q0 84 -61.5 120.5t-194.5 36.5h-163v-325zM494 637v-381h202
q128 0 189 49t61 150q0 182 -260 182h-192z" />
    <glyph glyph-name="C" unicode="C" horiz-adv-x="1305" 
d="M805 1225q-175 0 -271 -131.5t-96 -366.5q0 -489 367 -489q154 0 373 77v-260q-180 -75 -402 -75q-319 0 -488 193.5t-169 555.5q0 228 83 399.5t238.5 263t364.5 91.5q213 0 428 -103l-100 -252q-82 39 -165 68t-163 29z" />
    <glyph glyph-name="D" unicode="D" horiz-adv-x="1516" 
d="M1397 745q0 -361 -205.5 -553t-593.5 -192h-414v1462h459q358 0 556 -189t198 -528zM1075 737q0 471 -416 471h-165v-952h133q448 0 448 481z" />
    <glyph glyph-name="E" unicode="E" horiz-adv-x="1147" 
d="M1026 0h-842v1462h842v-254h-532v-321h495v-254h-495v-377h532v-256z" />
    <glyph glyph-name="F" unicode="F" horiz-adv-x="1124" 
d="M489 0h-305v1462h838v-254h-533v-377h496v-253h-496v-578z" />
    <glyph glyph-name="G" unicode="G" horiz-adv-x="1483" 
d="M739 821h580v-758q-141 -46 -265.5 -64.5t-254.5 -18.5q-331 0 -505.5 194.5t-174.5 558.5q0 354 202.5 552t561.5 198q225 0 434 -90l-103 -248q-160 80 -333 80q-201 0 -322 -135t-121 -363q0 -238 97.5 -363.5t283.5 -125.5q97 0 197 20v305h-277v258z" />
    <glyph glyph-name="H" unicode="H" horiz-adv-x="1567" 
d="M1382 0h-309v631h-579v-631h-310v1462h310v-573h579v573h309v-1462z" />
    <glyph glyph-name="I" unicode="I" horiz-adv-x="797" 
d="M731 0h-665v176l178 82v946l-178 82v176h665v-176l-178 -82v-946l178 -82v-176z" />
    <glyph glyph-name="J" unicode="J" horiz-adv-x="678" 
d="M31 -430q-105 0 -183 22v258q80 -20 146 -20q102 0 146 63.5t44 198.5v1370h310v-1368q0 -256 -117 -390t-346 -134z" />
    <glyph glyph-name="K" unicode="K" horiz-adv-x="1360" 
d="M1360 0h-352l-383 616l-131 -94v-522h-310v1462h310v-669l122 172l396 497h344l-510 -647z" />
    <glyph glyph-name="L" unicode="L" horiz-adv-x="1157" 
d="M184 0v1462h310v-1206h593v-256h-903z" />
    <glyph glyph-name="M" unicode="M" horiz-adv-x="1931" 
d="M803 0l-352 1147h-9q19 -350 19 -467v-680h-277v1462h422l346 -1118h6l367 1118h422v-1462h-289v692q0 49 1.5 113t13.5 340h-9l-377 -1145h-284z" />
    <glyph glyph-name="N" unicode="N" horiz-adv-x="1665" 
d="M1481 0h-394l-636 1106h-9q19 -293 19 -418v-688h-277v1462h391l635 -1095h7q-15 285 -15 403v692h279v-1462z" />
    <glyph glyph-name="O" unicode="O" horiz-adv-x="1630" 
d="M1511 733q0 -363 -180 -558t-516 -195t-516 195t-180 560t180.5 557.5t517.5 192.5t515.5 -194t178.5 -558zM444 733q0 -245 93 -369t278 -124q371 0 371 493q0 494 -369 494q-185 0 -279 -124.5t-94 -369.5z" />
    <glyph glyph-name="P" unicode="P" horiz-adv-x="1286" 
d="M494 774h102q143 0 214 56.5t71 164.5q0 109 -59.5 161t-186.5 52h-141v-434zM1194 1006q0 -236 -147.5 -361t-419.5 -125h-133v-520h-310v1462h467q266 0 404.5 -114.5t138.5 -341.5z" />
    <glyph glyph-name="Q" unicode="Q" horiz-adv-x="1630" 
d="M1511 733q0 -258 -91.5 -432.5t-268.5 -255.5l352 -393h-397l-268 328h-23q-336 0 -516 195t-180 560t180.5 557.5t517.5 192.5t515.5 -194t178.5 -558zM444 733q0 -245 93 -369t278 -124q371 0 371 493q0 494 -369 494q-185 0 -279 -124.5t-94 -369.5z" />
    <glyph glyph-name="R" unicode="R" horiz-adv-x="1352" 
d="M494 813h100q147 0 217 49t70 154q0 104 -71.5 148t-221.5 44h-94v-395zM494 561v-561h-310v1462h426q298 0 441 -108.5t143 -329.5q0 -129 -71 -229.5t-201 -157.5q330 -493 430 -637h-344l-349 561h-165z" />
    <glyph glyph-name="S" unicode="S" horiz-adv-x="1128" 
d="M1047 406q0 -198 -142.5 -312t-396.5 -114q-234 0 -414 88v288q148 -66 250.5 -93t187.5 -27q102 0 156.5 39t54.5 116q0 43 -24 76.5t-70.5 64.5t-189.5 99q-134 63 -201 121t-107 135t-40 180q0 194 131.5 305t363.5 111q114 0 217.5 -27t216.5 -76l-100 -241
q-117 48 -193.5 67t-150.5 19q-88 0 -135 -41t-47 -107q0 -41 19 -71.5t60.5 -59t196.5 -102.5q205 -98 281 -196.5t76 -241.5z" />
    <glyph glyph-name="T" unicode="T" horiz-adv-x="1186" 
d="M748 0h-310v1204h-397v258h1104v-258h-397v-1204z" />
    <glyph glyph-name="U" unicode="U" horiz-adv-x="1548" 
d="M1374 1462v-946q0 -162 -72.5 -284t-209.5 -187t-324 -65q-282 0 -438 144.5t-156 395.5v942h309v-895q0 -169 68 -248t225 -79q152 0 220.5 79.5t68.5 249.5v893h309z" />
    <glyph glyph-name="V" unicode="V" horiz-adv-x="1331" 
d="M1018 1462h313l-497 -1462h-338l-496 1462h313l275 -870q23 -77 47.5 -179.5t30.5 -142.5q11 92 75 322z" />
    <glyph glyph-name="W" unicode="W" horiz-adv-x="1980" 
d="M1608 0h-353l-198 768q-11 41 -37.5 169.5t-30.5 172.5q-6 -54 -30 -173.5t-37 -170.5l-197 -766h-352l-373 1462h305l187 -798q49 -221 71 -383q6 57 27.5 176.5t40.5 185.5l213 819h293l213 -819q14 -55 35 -168t32 -194q10 78 32 194.5t40 188.5l186 798h305z" />
    <glyph glyph-name="X" unicode="X" horiz-adv-x="1366" 
d="M1366 0h-354l-340 553l-340 -553h-332l485 754l-454 708h342l315 -526l309 526h334l-459 -725z" />
    <glyph glyph-name="Y" unicode="Y" horiz-adv-x="1278" 
d="M639 860l305 602h334l-485 -893v-569h-308v559l-485 903h336z" />
    <glyph glyph-name="Z" unicode="Z" horiz-adv-x="1186" 
d="M1137 0h-1088v201l701 1005h-682v256h1050v-200l-700 -1006h719v-256z" />
    <glyph glyph-name="bracketleft" unicode="[" horiz-adv-x="678" 
d="M627 -324h-484v1786h484v-211h-224v-1364h224v-211z" />
    <glyph glyph-name="bracketright" unicode="]" horiz-adv-x="678" 
d="M51 -113h223v1364h-223v211h484v-1786h-484v211z" />
    <glyph glyph-name="asciicircum" unicode="^" horiz-adv-x="1090" 
d="M8 520l438 950h144l495 -950h-239l-322 643l-280 -643h-236z" />
    <glyph glyph-name="underscore" unicode="_" horiz-adv-x="842" 
d="M846 -324h-850v140h850v-140z" />
    <glyph glyph-name="grave" unicode="`" horiz-adv-x="1243" 
d="M707 1241q-63 44 -185 142.5t-190 164.5v21h342q63 -101 235 -301v-27h-202z" />
    <glyph glyph-name="a" unicode="a" horiz-adv-x="1237" 
d="M870 0l-59 152h-8q-77 -97 -158.5 -134.5t-212.5 -37.5q-161 0 -253.5 92t-92.5 262q0 178 124.5 262.5t375.5 93.5l194 6v49q0 170 -174 170q-134 0 -315 -81l-101 206q193 101 428 101q225 0 345 -98t120 -298v-745h-213zM780 518l-118 -4q-133 -4 -198 -48t-65 -134
q0 -129 148 -129q106 0 169.5 61t63.5 162v92z" />
    <glyph glyph-name="b" unicode="b" horiz-adv-x="1296" 
d="M782 1139q198 0 310 -154.5t112 -423.5q0 -277 -115.5 -429t-314.5 -152q-197 0 -309 143h-21l-51 -123h-233v1556h305v-362q0 -69 -12 -221h12q107 166 317 166zM684 895q-113 0 -165 -69.5t-54 -229.5v-33q0 -180 53.5 -258t169.5 -78q94 0 149.5 86.5t55.5 251.5
t-56 247.5t-153 82.5z" />
    <glyph glyph-name="c" unicode="c" horiz-adv-x="1053" 
d="M614 -20q-522 0 -522 573q0 285 142 435.5t407 150.5q194 0 348 -76l-90 -236q-72 29 -134 47.5t-124 18.5q-238 0 -238 -338q0 -328 238 -328q88 0 163 23.5t150 73.5v-261q-74 -47 -149.5 -65t-190.5 -18z" />
    <glyph glyph-name="d" unicode="d" horiz-adv-x="1296" 
d="M514 -20q-197 0 -309.5 153t-112.5 424q0 275 114.5 428.5t315.5 153.5q211 0 322 -164h10q-23 125 -23 223v358h306v-1556h-234l-59 145h-13q-104 -165 -317 -165zM621 223q117 0 171.5 68t59.5 231v33q0 180 -55.5 258t-180.5 78q-102 0 -158.5 -86.5t-56.5 -251.5
t57 -247.5t163 -82.5z" />
    <glyph glyph-name="e" unicode="e" horiz-adv-x="1210" 
d="M623 922q-97 0 -152 -61.5t-63 -174.5h428q-2 113 -59 174.5t-154 61.5zM666 -20q-270 0 -422 149t-152 422q0 281 140.5 434.5t388.5 153.5q237 0 369 -135t132 -373v-148h-721q5 -130 77 -203t202 -73q101 0 191 21t188 67v-236q-80 -40 -171 -59.5t-222 -19.5z" />
    <glyph glyph-name="f" unicode="f" horiz-adv-x="793" 
d="M778 889h-264v-889h-305v889h-168v147l168 82v82q0 191 94 279t301 88q158 0 281 -47l-78 -224q-92 29 -170 29q-65 0 -94 -38.5t-29 -98.5v-70h264v-229z" />
    <glyph glyph-name="g" unicode="g" horiz-adv-x="1157" 
d="M1133 1118v-155l-175 -45q48 -75 48 -168q0 -180 -125.5 -280.5t-348.5 -100.5l-55 3l-45 5q-47 -36 -47 -80q0 -66 168 -66h190q184 0 280.5 -79t96.5 -232q0 -196 -163.5 -304t-469.5 -108q-234 0 -357.5 81.5t-123.5 228.5q0 101 63 169t185 97q-47 20 -82 65.5
t-35 96.5q0 64 37 106.5t107 83.5q-88 38 -139.5 122t-51.5 198q0 183 119 283t340 100q47 0 111.5 -8.5t82.5 -12.5h390zM270 -158q0 -63 60.5 -99t169.5 -36q164 0 257 45t93 123q0 63 -55 87t-170 24h-158q-84 0 -140.5 -39.5t-56.5 -104.5zM381 752q0 -91 41.5 -144
t126.5 -53q86 0 126 53t40 144q0 202 -166 202q-168 0 -168 -202z" />
    <glyph glyph-name="h" unicode="h" horiz-adv-x="1346" 
d="M1192 0h-305v653q0 242 -180 242q-128 0 -185 -87t-57 -282v-526h-305v1556h305v-317q0 -37 -7 -174l-7 -90h16q102 164 324 164q197 0 299 -106t102 -304v-729z" />
    <glyph glyph-name="i" unicode="i" horiz-adv-x="625" 
d="M147 1407q0 149 166 149t166 -149q0 -71 -41.5 -110.5t-124.5 -39.5q-166 0 -166 150zM465 0h-305v1118h305v-1118z" />
    <glyph glyph-name="j" unicode="j" horiz-adv-x="625" 
d="M70 -492q-117 0 -201 25v240q70 -19 143 -19q77 0 112.5 43t35.5 127v1194h305v-1239q0 -178 -103 -274.5t-292 -96.5zM147 1407q0 149 166 149t166 -149q0 -71 -41.5 -110.5t-124.5 -39.5q-166 0 -166 150z" />
    <glyph glyph-name="k" unicode="k" horiz-adv-x="1270" 
d="M453 608l133 170l313 340h344l-444 -485l471 -633h-352l-322 453l-131 -105v-348h-305v1556h305v-694l-16 -254h4z" />
    <glyph glyph-name="l" unicode="l" horiz-adv-x="625" 
d="M465 0h-305v1556h305v-1556z" />
    <glyph glyph-name="m" unicode="m" horiz-adv-x="2011" 
d="M1161 0h-305v653q0 121 -40.5 181.5t-127.5 60.5q-117 0 -170 -86t-53 -283v-526h-305v1118h233l41 -143h17q45 77 130 120.5t195 43.5q251 0 340 -164h27q45 78 132.5 121t197.5 43q190 0 287.5 -97.5t97.5 -312.5v-729h-306v653q0 121 -40.5 181.5t-127.5 60.5
q-112 0 -167.5 -80t-55.5 -254v-561z" />
    <glyph glyph-name="n" unicode="n" horiz-adv-x="1346" 
d="M1192 0h-305v653q0 121 -43 181.5t-137 60.5q-128 0 -185 -85.5t-57 -283.5v-526h-305v1118h233l41 -143h17q51 81 140.5 122.5t203.5 41.5q195 0 296 -105.5t101 -304.5v-729z" />
    <glyph glyph-name="o" unicode="o" horiz-adv-x="1268" 
d="M403 561q0 -166 54.5 -251t177.5 -85q122 0 175.5 84.5t53.5 251.5q0 166 -54 249t-177 83q-122 0 -176 -82.5t-54 -249.5zM1176 561q0 -273 -144 -427t-401 -154q-161 0 -284 70.5t-189 202.5t-66 308q0 274 143 426t402 152q161 0 284 -70t189 -201t66 -307z" />
    <glyph glyph-name="p" unicode="p" horiz-adv-x="1296" 
d="M774 -20q-197 0 -309 143h-16q16 -140 16 -162v-453h-305v1610h248l43 -145h14q107 166 317 166q198 0 310 -153t112 -425q0 -179 -52.5 -311t-149.5 -201t-228 -69zM684 895q-113 0 -165 -69.5t-54 -229.5v-33q0 -180 53.5 -258t169.5 -78q205 0 205 338
q0 165 -50.5 247.5t-158.5 82.5z" />
    <glyph glyph-name="q" unicode="q" horiz-adv-x="1296" 
d="M623 219q116 0 170 66.5t59 232.5v37q0 180 -55.5 258t-178.5 78q-215 0 -215 -338q0 -168 53.5 -251t166.5 -83zM514 -20q-198 0 -310 152.5t-112 424.5q0 274 114.5 428t313.5 154q106 0 185 -40t139 -124h8l27 143h258v-1610h-306v469q0 61 13 168h-13
q-49 -81 -130 -123t-187 -42z" />
    <glyph glyph-name="r" unicode="r" horiz-adv-x="930" 
d="M784 1139q62 0 103 -9l-23 -286q-37 10 -90 10q-146 0 -227.5 -75t-81.5 -210v-569h-305v1118h231l45 -188h15q52 94 140.5 151.5t192.5 57.5z" />
    <glyph glyph-name="s" unicode="s" horiz-adv-x="1018" 
d="M940 332q0 -172 -119.5 -262t-357.5 -90q-122 0 -208 16.5t-161 48.5v252q85 -40 191.5 -67t187.5 -27q166 0 166 96q0 36 -22 58.5t-76 51t-144 66.5q-129 54 -189.5 100t-88 105.5t-27.5 146.5q0 149 115.5 230.5t327.5 81.5q202 0 393 -88l-92 -220q-84 36 -157 59
t-149 23q-135 0 -135 -73q0 -41 43.5 -71t190.5 -89q131 -53 192 -99t90 -106t29 -143z" />
    <glyph glyph-name="t" unicode="t" horiz-adv-x="889" 
d="M631 223q80 0 192 35v-227q-114 -51 -280 -51q-183 0 -266.5 92.5t-83.5 277.5v539h-146v129l168 102l88 236h195v-238h313v-229h-313v-539q0 -65 36.5 -96t96.5 -31z" />
    <glyph glyph-name="u" unicode="u" horiz-adv-x="1346" 
d="M952 0l-41 143h-16q-49 -78 -139 -120.5t-205 -42.5q-197 0 -297 105.5t-100 303.5v729h305v-653q0 -121 43 -181.5t137 -60.5q128 0 185 85.5t57 283.5v526h305v-1118h-234z" />
    <glyph glyph-name="v" unicode="v" horiz-adv-x="1165" 
d="M426 0l-426 1118h319l216 -637q36 -121 45 -229h6q5 96 45 229l215 637h319l-426 -1118h-313z" />
    <glyph glyph-name="w" unicode="w" horiz-adv-x="1753" 
d="M1079 0l-86 391l-116 494h-7l-204 -885h-328l-318 1118h304l129 -495q31 -133 63 -367h6q4 76 35 241l16 85l138 536h336l131 -536q4 -22 12.5 -65t16.5 -91.5t14.5 -95t7.5 -74.5h6q9 72 32 197.5t33 169.5l134 495h299l-322 -1118h-332z" />
    <glyph glyph-name="x" unicode="x" horiz-adv-x="1184" 
d="M389 571l-360 547h346l217 -356l219 356h346l-364 -547l381 -571h-347l-235 383l-236 -383h-346z" />
    <glyph glyph-name="y" unicode="y" horiz-adv-x="1165" 
d="M0 1118h334l211 -629q27 -82 37 -194h6q11 103 43 194l207 629h327l-473 -1261q-65 -175 -185.5 -262t-281.5 -87q-79 0 -155 17v242q55 -13 120 -13q81 0 141.5 49.5t94.5 149.5l18 55z" />
    <glyph glyph-name="z" unicode="z" horiz-adv-x="999" 
d="M938 0h-883v180l518 705h-487v233h834v-198l-504 -687h522v-233z" />
    <glyph glyph-name="braceleft" unicode="{" horiz-adv-x="807" 
d="M287 270q0 87 -65.5 133t-190.5 46v239q126 0 191 44t65 126v326q0 153 97 215.5t341 62.5v-225q-99 -3 -136.5 -38t-37.5 -103v-299q-6 -188 -234 -222v-12q234 -35 234 -212v-308q0 -68 37 -103t137 -38v-226q-244 0 -341 62.5t-97 216.5v315z" />
    <glyph glyph-name="bar" unicode="|" horiz-adv-x="1128" 
d="M455 1550h219v-2015h-219v2015z" />
    <glyph glyph-name="braceright" unicode="}" horiz-adv-x="807" 
d="M520 -45q0 -112 -41 -169t-135.5 -83.5t-261.5 -26.5v226q99 2 136.5 36t37.5 105v310q0 86 59 139.5t174 70.5v12q-227 34 -233 222v299q0 70 -37 104t-137 37v225q167 0 262 -26.5t135.5 -84t40.5 -167.5v-328q0 -84 61.5 -126t194.5 -42v-239q-125 0 -190.5 -41
t-65.5 -138v-315z" />
    <glyph glyph-name="asciitilde" unicode="~" horiz-adv-x="1169" 
d="M322 672q-55 0 -117.5 -33.5t-116.5 -87.5v231q103 109 256 109q73 0 137.5 -16t139.5 -48q129 -55 227 -55q53 0 116 32t117 89v-231q-101 -109 -256 -109q-66 0 -126 13t-150 50q-131 56 -227 56z" />
    <glyph glyph-name="periodcentered" unicode="&#xb7;" horiz-adv-x="584" 
d="M117 143q0 84 45 127t131 43q83 0 128.5 -44t45.5 -126q0 -79 -46 -124.5t-128 -45.5q-84 0 -130 44.5t-46 125.5z" />
    <glyph glyph-name="periodcentered" unicode="&#x2219;" horiz-adv-x="584" 
d="M117 143q0 84 45 127t131 43q83 0 128.5 -44t45.5 -126q0 -79 -46 -124.5t-128 -45.5q-84 0 -130 44.5t-46 125.5z" />
    <glyph glyph-name="ampersand" unicode="&#x26;" horiz-adv-x="1536" 
d="M1536 0h-377l-115 113q-191 -133 -432 -133q-244 0 -387 112t-143 303q0 137 60.5 233.5t207.5 180.5q-75 86 -109 164.5t-34 171.5q0 152 116.5 245t311.5 93q186 0 297.5 -86.5t111.5 -231.5q0 -119 -69 -217.5t-223 -187.5l284 -277q71 117 123 301h318
q-36 -135 -99 -263.5t-143 -227.5zM403 424q0 -86 64.5 -137t165.5 -51q126 0 227 61l-332 330q-58 -44 -91.5 -92t-33.5 -111zM762 1133q0 53 -36 83.5t-93 30.5q-67 0 -105.5 -32t-38.5 -91q0 -88 95 -194q86 48 132 94.5t46 108.5z" />
    <glyph glyph-name="quotesingle" unicode="'" horiz-adv-x="545" 
d="M412 1462l-41 -528h-197l-41 528h279z" />
    <glyph glyph-name="quotedbl" unicode="&#x22;" horiz-adv-x="967" 
d="M412 1462l-41 -528h-197l-41 528h279zM834 1462l-41 -528h-197l-41 528h279z" />
    <glyph glyph-name="percent" unicode="%" horiz-adv-x="1845" 
d="M315 1024q0 -127 22.5 -189.5t72.5 -62.5q96 0 96 252q0 250 -96 250q-50 0 -72.5 -61.5t-22.5 -188.5zM758 1026q0 -230 -89 -345.5t-261 -115.5q-165 0 -255 118.5t-90 342.5q0 457 345 457q169 0 259.5 -118.5t90.5 -338.5zM1446 1462l-811 -1462h-240l811 1462h240z
M1339 440q0 -127 22.5 -189.5t72.5 -62.5q96 0 96 252q0 250 -96 250q-50 0 -72.5 -61.5t-22.5 -188.5zM1782 442q0 -229 -89 -344.5t-261 -115.5q-165 0 -255 118.5t-90 341.5q0 457 345 457q169 0 259.5 -118.5t90.5 -338.5z" />
    <glyph glyph-name="divide" unicode="&#xf7;" horiz-adv-x="1026" 
d="M913 338h-791v102h791v-102zM628 105q0 -49 -33 -82.5t-82 -33.5t-82 33.5t-33 82.5q0 48 33.5 81.5t81.5 33.5t81.5 -33.5t33.5 -81.5zM628 675q0 -49 -33 -82.5t-82 -33.5t-82 33.5t-33 82.5q0 48 33.5 81.5t81.5 33.5t81.5 -33.5t33.5 -81.5z" />
    <glyph glyph-name="copyright" horiz-adv-x="1704" 
d="M895 1010q-97 0 -150 -74t-53 -205q0 -280 203 -280q57 0 123 15t123 44v-191q-120 -57 -252 -57q-204 0 -316 125t-112 346q0 220 110.5 342.5t309.5 122.5q149 0 305 -78l-74 -168q-113 58 -217 58zM100 731q0 200 100 375t275 276t377 101q200 0 375 -100t276 -275
t101 -377q0 -197 -97 -370t-272 -277t-383 -104q-207 0 -382 103.5t-272.5 276.5t-97.5 371zM242 731q0 -164 82 -305.5t224 -223t304 -81.5q164 0 305.5 82t223 224t81.5 304q0 164 -82 305.5t-224 223t-304 81.5q-164 0 -305.5 -82t-223 -224t-81.5 -304z" />
  </font>
</defs>
</svg>
